<svg width="126" height="60" viewBox="0 0 126 60" fill="none" xmlns="http://www.w3.org/2000/svg">
<path d="M59.4156 25.2978C59.2487 25.1585 57.746 24.0163 54.518 24.0163C53.6831 24.0163 52.8205 24.0998 51.9857 24.2391C51.3734 19.9766 47.8393 17.915 47.7002 17.8036L46.8375 17.3021L46.281 18.1101C45.5853 19.1966 45.0566 20.4224 44.7505 21.6761C44.1661 24.0998 44.5278 26.3843 45.7523 28.3345C44.2774 29.1703 41.8842 29.3653 41.3833 29.3931L1.86808 29.3931C0.83846 29.3931 0.00363085 30.2289 0.00363076 31.2597C-0.0520248 34.7143 0.532355 38.1689 1.72894 41.4284C3.0925 44.9944 5.12391 47.6411 7.73971 49.2569C10.6894 51.0678 15.5036 52.0986 20.93 52.0986C23.3788 52.0986 25.8277 51.8757 28.2487 51.43C31.6158 50.8171 34.8438 49.647 37.8214 47.9475C40.2702 46.5267 42.4686 44.7158 44.3331 42.5985C47.4776 39.0604 49.342 35.1043 50.7056 31.594L51.2621 31.594C54.6849 31.594 56.7998 30.2289 57.9686 29.0588C58.7478 28.3345 59.3321 27.443 59.7496 26.44L60 25.7157L59.4156 25.2978Z" fill="#33376D"/>
<path d="M5.54143 28.2509L10.8287 28.2509C11.0791 28.2509 11.3017 28.0559 11.3017 27.7773L11.3017 23.0412C11.3017 22.7904 11.107 22.5676 10.8287 22.5676L5.54143 22.5676C5.29098 22.5676 5.06836 22.7626 5.06836 23.0412L5.06836 27.7773C5.09619 28.0559 5.29098 28.2509 5.54143 28.2509ZM12.8323 28.2509L18.1195 28.2509C18.37 28.2509 18.5926 28.0559 18.5926 27.7773L18.5926 23.0412C18.5926 22.7904 18.3978 22.5676 18.1195 22.5676L12.8323 22.5676C12.5818 22.5676 12.3592 22.7626 12.3592 23.0412L12.3592 27.7773C12.387 28.0559 12.5818 28.2509 12.8323 28.2509ZM20.2622 28.2509L25.5495 28.2509C25.7999 28.2509 26.0226 28.0559 26.0226 27.7773L26.0226 23.0412C26.0226 22.7904 25.8278 22.5676 25.5495 22.5676L20.2622 22.5676C20.0118 22.5676 19.7892 22.7626 19.7892 23.0412L19.7892 27.7773C19.7892 28.0559 19.984 28.2509 20.2622 28.2509ZM27.5809 28.2509L32.8682 28.2509C33.1186 28.2509 33.3412 28.0559 33.3412 27.7773L33.3412 23.0412C33.3412 22.7904 33.1464 22.5676 32.8682 22.5676L27.5809 22.5676C27.3305 22.5676 27.1078 22.7626 27.1078 23.0412L27.1078 27.7773C27.1078 28.0559 27.3305 28.2509 27.5809 28.2509ZM12.8323 21.481L18.1195 21.481C18.37 21.481 18.5926 21.2582 18.5926 21.0074L18.5926 16.2713C18.5926 16.0206 18.3978 15.7977 18.1195 15.7977L12.8323 15.7977C12.5818 15.7977 12.3592 15.9927 12.3592 16.2713L12.3592 21.0074C12.387 21.2582 12.5818 21.481 12.8323 21.481ZM20.2622 21.481L25.5495 21.481C25.7999 21.481 26.0226 21.2582 26.0226 21.0074L26.0226 16.2713C26.0226 16.0206 25.8278 15.7977 25.5495 15.7977L20.2622 15.7977C20.0118 15.7977 19.7892 15.9927 19.7892 16.2713L19.7892 21.0074C19.7892 21.2582 19.984 21.481 20.2622 21.481ZM27.5809 21.481L32.8682 21.481C33.1186 21.481 33.3412 21.2582 33.3412 21.0074L33.3412 16.2713C33.3412 16.0206 33.1186 15.7977 32.8682 15.7977L27.5809 15.7977C27.3305 15.7977 27.1078 15.9927 27.1078 16.2713L27.1078 21.0074C27.1078 21.2582 27.3305 21.481 27.5809 21.481ZM27.5809 14.6833L32.8682 14.6833C33.1186 14.6833 33.3412 14.4883 33.3412 14.2097L33.3412 9.47362C33.3412 9.22288 33.1186 9 32.8682 9L27.5809 9C27.3305 9 27.1078 9.19502 27.1078 9.47362L27.1078 14.2097C27.1078 14.4605 27.3305 14.6833 27.5809 14.6833ZM34.9552 28.2509L40.2425 28.2509C40.4929 28.2509 40.7155 28.0559 40.7155 27.7773L40.7155 23.0412C40.7155 22.7904 40.5208 22.5676 40.2425 22.5676L34.9552 22.5676C34.7048 22.5676 34.4822 22.7626 34.4822 23.0412L34.4822 27.7773C34.51 28.0559 34.7048 28.2509 34.9552 28.2509Z" fill="#33376D"/>
<path d="M71.5664 31.8281H67.0312V29.2617H71.5664V24.6914H74.1328V29.2617H78.668V31.8281H74.1328V36.3398H71.5664V31.8281Z" fill="#33376D"/>
<g clip-path="url(#clip0_8043_67414)">
<path fill-rule="evenodd" clip-rule="evenodd" d="M86 54.516L106.468 60L106.492 14.664L86.024 9.17999L86 54.516Z" fill="#33376D"/>
<path fill-rule="evenodd" clip-rule="evenodd" d="M119.893 6.24L96.606 0V8.256L110.079 11.868L110.067 43.284L119.881 45.912C123.253 46.812 125.988 44.304 126 40.308L126.012 15.132C126 11.124 123.265 7.152 119.893 6.24Z" fill="#33376D"/>
</g>
<defs>
<clipPath id="clip0_8043_67414">
<rect width="40" height="60" fill="white" transform="translate(86)"/>
</clipPath>
</defs>
</svg>
