<svg width="60" height="60" viewBox="0 0 60 60" fill="none" xmlns="http://www.w3.org/2000/svg">
<path fill-rule="evenodd" clip-rule="evenodd" d="M40.1336 28.9369L40.2392 28.9369L41.6074 7.99996C51.6286 12.9325 56.9305 24.1762 57.3123 33.6869C57.3282 34.0906 57.3362 34.4942 57.3362 34.8253C53.3235 40.4572 47.5661 42.7617 39.9392 43.6258C41.4982 41.5502 42.4239 38.9587 42.4238 36.148C42.4237 33.4565 41.5747 30.966 40.1336 28.9369ZM38.3588 26.9368C36.2043 24.9833 33.3603 23.7955 30.2429 23.7954C27.9659 23.7953 25.8349 24.4288 24.012 25.5316L25.269 6.23657C25.3323 5.31883 25.7514 4.46388 26.4347 3.85873C27.1179 3.25358 28.0097 2.94748 28.915 3.00739L36.4699 3.52433C37.3742 3.58653 38.2173 4.00989 38.8143 4.70155C39.4113 5.3932 39.7134 6.2967 39.6545 7.2139L38.3656 26.9368H38.3588ZM21.9026 27.1451C19.5389 29.3981 18.0628 32.5978 18.0629 36.1471C18.063 38.3827 18.6487 40.4795 19.673 42.2885C11.9575 39.6259 5.2733 34.5594 3.48705 30.8513C3.59053 30.4234 3.69401 29.9955 3.80544 29.5757C6.76264 18.4099 12.852 9.47816 23.245 6.54056L21.9026 27.1451ZM30.2438 48.4997C27.346 48.4996 24.6844 47.4733 22.5933 45.7595C13.1984 43.305 4.51168 36.9514 2.50453 32.7847C2.60801 32.3568 2.71149 31.9289 2.82293 31.5091C1.85166 31.4606 0.108176 31.7916 0.108247 33.6646C0.108263 34.0804 0.081603 34.5129 0.0547402 34.9487C-0.0394087 36.4761 -0.136045 38.0438 0.904572 39.0739C1.40155 39.5779 2.8149 41.3121 4.36226 43.2107C5.91347 45.114 7.59935 47.1825 8.63165 48.3426C12.8765 53.0686 18.6839 56.0507 24.9524 56.7235C29.0843 57.1676 32.9136 57.3858 35.501 57.3859C38.6852 57.3137 41.824 56.6039 44.7368 55.2975C47.6496 53.991 50.279 52.1136 52.4739 49.7731C52.4739 49.7731 57.2504 44.4932 58.7869 43.153C59.6546 42.3861 59.9809 39.9236 59.9809 39.5119L59.9809 38.2201C60.0258 37.8621 59.9873 37.4984 59.8686 37.1582C59.7498 36.818 59.5541 36.5107 59.2971 36.2611C59.0401 36.0114 58.7289 35.8264 58.3887 35.7207C58.0484 35.615 57.6884 35.5917 57.3377 35.6526L57.3377 36.7587C52.7153 43.2464 46.2662 45.8187 36.8244 46.5439C34.9267 47.7817 32.668 48.4998 30.2438 48.4997Z" fill="#33376D"/>
<path d="M35.8451 31.2381L29.0796 35.1442C29.053 35.1595 29.0338 35.1848 29.0259 35.2146C29.0181 35.2444 29.0225 35.2762 29.0379 35.303L30.4614 37.7685C30.4768 37.7953 30.5022 37.8149 30.5319 37.8231C30.5616 37.8312 30.5932 37.8272 30.6197 37.8118L34.3849 35.638C34.5637 36.4451 34.4697 37.2865 34.1179 38.0286C33.7382 38.8065 33.127 39.4448 32.3684 39.8556C31.8832 40.1522 31.341 40.3438 30.7762 40.418C30.2114 40.4922 29.6363 40.4474 29.0874 40.2866C28.5311 40.1323 28.0106 39.8665 27.5574 39.5052C27.1041 39.144 26.7275 38.6949 26.4503 38.1849C26.1489 37.6945 25.9474 37.1496 25.8574 36.5819C25.7674 36.0143 25.7908 35.4354 25.9261 34.8791C26.0532 34.3315 26.294 33.8181 26.6328 33.3724C26.9715 32.9267 27.4007 32.5588 27.8921 32.2927C29.3629 31.4435 30.7447 31.4388 32.0397 32.2416C32.0597 32.255 32.0836 32.2613 32.1074 32.2597C32.1313 32.2581 32.1539 32.2486 32.1718 32.2327L34.5113 29.7837C34.5223 29.7723 34.5309 29.7588 34.5365 29.744C34.5422 29.7291 34.5447 29.7133 34.5439 29.6973C34.5432 29.6814 34.5392 29.6658 34.5322 29.6514C34.5253 29.637 34.5154 29.6242 34.5034 29.6137C33.4143 28.7021 32.0432 28.2042 30.6327 28.2083C29.0801 28.2026 27.5589 28.6192 26.2301 29.4139C25.3269 29.9048 24.5339 30.5757 23.8989 31.386C23.2639 32.1963 22.8001 33.1292 22.5355 34.1284C22.255 35.1033 22.1798 36.1281 22.3144 37.1378C22.449 38.1474 22.7906 39.1199 23.3175 39.9936C23.8108 40.8935 24.4857 41.6808 25.2985 42.3045C26.1113 42.9282 27.0439 43.3744 28.0356 43.6141C29.0381 43.8753 30.0806 43.9331 31.1017 43.784C32.1229 43.635 33.1023 43.2822 33.9824 42.7463C34.8698 42.2743 35.6493 41.623 36.2726 40.8327C36.8959 40.0424 37.3496 39.13 37.6055 38.1524C38.1147 36.1903 37.8113 34.2427 36.6952 32.3096C36.4875 31.9511 36.2589 31.6051 36.0106 31.2734C36.0023 31.2598 35.9913 31.248 35.9783 31.2388C35.9654 31.2296 35.9507 31.2231 35.9351 31.2198C35.9196 31.2165 35.9037 31.2164 35.8882 31.2195C35.8727 31.2227 35.858 31.229 35.8451 31.2381Z" fill="#33376D"/>
</svg>
