<svg width="186" height="54" viewBox="0 0 186 54" fill="none" xmlns="http://www.w3.org/2000/svg"><path fill-rule="evenodd" clip-rule="evenodd" d="M14.9707 32.515C14.9707 26.9652 19.6609 25.3796 22.207 25.3796C22.4304 22.3844 25.4231 16.0149 32.2574 14.9406C39.6546 13.7777 43.8714 18.5964 45.2562 21.1511C48.6062 21.1511 54.6364 23.5296 54.6364 30.7972C54.6364 36.8756 49.008 38.9017 46.1939 39.2541H20.7329C18.7229 39.122 14.9707 36.6113 14.9707 32.515ZM45.3901 27.1182C45.3901 33.1024 40.4701 37.9535 34.4015 37.9535C28.3327 37.9535 23.413 33.1024 23.413 27.1182C23.413 21.1339 28.3327 16.2828 34.4015 16.2828C40.4701 16.2828 45.3901 21.1339 45.3901 27.1182ZM33.1957 23.0706L29.0908 27.1184L33.1957 31.1661L32.1695 32.178L27.0383 27.1184L32.1695 22.0587L33.1957 23.0706ZM35.6072 23.0706L39.7121 27.1184L35.6072 31.1661L36.6334 32.178L41.7644 27.1184L36.6334 22.0587L35.6072 23.0706Z" fill="url(#paint0_linear_1577_2257)"></path><path fill-rule="evenodd" clip-rule="evenodd" d="M67.716 19.813V34.4907H65.7949V19.813H67.716ZM78.1627 19.813L71.4753 26.7413L78.3081 34.4907H75.6392L69.5854 27.429V26.2794L75.733 19.813H78.1627ZM81.5275 29.061C81.5275 31.6544 82.618 32.951 84.7987 32.951C86.9793 32.951 88.0699 31.6544 88.0699 29.061C88.0699 26.5223 86.9793 25.2529 84.7987 25.2529C82.618 25.2529 81.5275 26.5223 81.5275 29.061ZM79.6064 29.102C79.6064 25.5095 81.3372 23.7133 84.7987 23.7133C88.2602 23.7133 89.9909 25.5095 89.9909 29.102C89.9909 32.6876 88.2602 34.4804 84.7987 34.4804C81.351 34.4804 79.6202 32.6876 79.6064 29.102ZM97.2499 25.3556C98.2466 25.3556 99.1327 25.5404 99.908 25.9099V32.5097C99.1327 32.7766 98.2466 32.91 97.2499 32.91C95.055 32.91 93.9578 31.5449 93.9578 28.8146C93.9578 26.5086 95.055 25.3556 97.2499 25.3556ZM96.9382 34.4907C98.8766 34.4907 100.507 34.2751 101.829 33.844V19.813H99.908V24.2266C99.0704 23.8844 98.1808 23.7133 97.2392 23.7133C93.7915 23.7133 92.0679 25.4377 92.0679 28.8865C92.0679 32.6226 93.6915 34.4907 96.9382 34.4907ZM109.441 23.7133C112.542 23.7133 114.093 25.229 114.093 28.2604C114.093 28.6914 114.062 29.1533 114 29.646H106.346C106.346 31.8494 107.648 32.951 110.251 32.951C111.49 32.951 112.591 32.8142 113.553 32.5405V34.0801C112.591 34.3538 111.421 34.4907 110.043 34.4907C106.298 34.4907 104.425 32.6534 104.425 28.9788C104.425 25.4685 106.097 23.7133 109.441 23.7133ZM106.346 28.0653H112.245C112.203 26.1767 111.269 25.2324 109.441 25.2324C107.503 25.2324 106.471 26.1767 106.346 28.0653ZM118.808 34.4907V19.813H116.887V34.4907H118.808ZM122.567 26.7413L129.254 19.813H126.824L120.677 26.2794V27.429L126.731 34.4907H129.4L122.567 26.7413ZM133.242 19.813V34.4907H131.321V19.813H133.242ZM141.145 32.951C138.964 32.951 137.874 31.6544 137.874 29.061C137.874 26.5223 138.964 25.2529 141.145 25.2529C143.326 25.2529 144.416 26.5223 144.416 29.061C144.416 31.6544 143.326 32.951 141.145 32.951ZM141.145 23.7133C137.683 23.7133 135.953 25.5095 135.953 29.102C135.966 32.6876 137.697 34.4804 141.145 34.4804C144.606 34.4804 146.337 32.6876 146.337 29.102C146.337 25.5095 144.606 23.7133 141.145 23.7133ZM158.331 23.7133V34.4907H157.012L156.68 33.1153C155.358 34.0322 154.028 34.4907 152.692 34.4907C150.186 34.4907 148.933 33.1529 148.933 30.4774V23.7133H150.854V30.5082C150.854 32.1094 151.657 32.91 153.263 32.91C154.364 32.91 155.413 32.4549 156.41 31.5449V23.7133H158.331ZM166.12 25.3556C167.117 25.3556 168.003 25.5404 168.778 25.9099V32.5097C168.003 32.7766 167.117 32.91 166.12 32.91C163.925 32.91 162.828 31.5449 162.828 28.8146C162.828 26.5086 163.925 25.3556 166.12 25.3556ZM165.808 34.4907C167.747 34.4907 169.377 34.2751 170.699 33.844V19.813H168.778V24.2266C167.941 23.8844 167.051 23.7133 166.109 23.7133C162.662 23.7133 160.938 25.4377 160.938 28.8865C160.938 32.6226 162.561 34.4907 165.808 34.4907Z" fill="black" fill-opacity="0.7"></path><defs><linearGradient id="paint0_linear_1577_2257" x1="54.6364" y1="14.7626" x2="22.3263" y2="46.6964" gradientUnits="userSpaceOnUse"><stop stop-color="#95E4B7"></stop><stop offset="0.483932" stop-color="#10C1DF"></stop><stop offset="1" stop-color="#1C88D6"></stop></linearGradient></defs></svg>
