<?xml version="1.0" encoding="UTF-8"?>
<svg width="24px" height="24px" viewBox="0 0 24 24" version="1.1" xmlns="http://www.w3.org/2000/svg" xmlns:xlink="http://www.w3.org/1999/xlink">
    <!-- Generator: Sketch 52 (66869) - http://www.bohemiancoding.com/sketch -->
    <title>_Icons / 24px  / Bag</title>
    <desc>Created with Sketch.</desc>
    <g id="_Icons-/-24px--/-Bag" stroke="none" stroke-width="1" fill="none" fill-rule="evenodd">
        <path d="M12,1.95 C14.0343752,1.95 15.7038462,3.61947092 15.7038462,5.65384615 L15.6538462,6.33461538 L19.3119085,6.38128943 L19.3576153,7.06693804 L20.0883753,20.2206216 L20.0841346,21.05 L3.86595167,20.9970639 L3.91161544,20.2207842 L4.64241843,7.06638559 L4.73798077,6.33461538 L8.29615385,6.38461538 L8.29615385,5.65384615 C8.29615385,3.61947092 9.96562476,1.95 12,1.95 Z M12,3.51153846 C10.8172777,3.51153846 9.85769231,4.47112385 9.85769231,5.65384615 L9.80769231,6.33461538 L14.1423077,6.38461538 L14.1423077,5.65384615 C14.1423077,4.47112385 13.1827223,3.51153846 12,3.51153846 Z M6.15529895,7.89615385 L5.46875,19.4884615 L18.4813246,19.5411918 L17.8918269,7.89615385 L15.7038462,7.84615385 L15.6538462,10.0884615 L14.1423077,10.0384615 L14.1923077,7.89615385 L9.85769231,7.84615385 L9.80769231,10.0884615 L8.29615385,10.0384615 L8.34615385,7.89615385 L6.15529895,7.89615385 Z" id="Icon" fill="#000000"></path>
    </g>
</svg>