<?xml version="1.0" encoding="UTF-8"?>
<svg width="32px" height="32px" viewBox="0 0 32 32" version="1.1" xmlns="http://www.w3.org/2000/svg" xmlns:xlink="http://www.w3.org/1999/xlink">
    <!-- Generator: Sketch 52 (66869) - http://www.bohemiancoding.com/sketch -->
    <title>_Icons / 32px - Social  / Facebook</title>
    <desc>Created with Sketch.</desc>
    <g id="_Icons-/-32px---Social--/-Facebook" stroke="none" stroke-width="1" fill="none" fill-rule="evenodd">
        <path d="M28.9,1.5 L3.1,1.5 C2.2163444,1.5 1.5,2.2163444 1.5,3.1 L1.5,28.9 C1.5,29.7836556 2.2163444,30.5 3.1,30.5 L17,30.5 L17,19.285 L13.225,19.285 L13.225,14.895 L17,14.895 L17,11.665 C17,7.92 19.29,5.88 22.63,5.88 C23.7555369,5.87754542 24.8804239,5.93429046 26,6.05 L26,9.965 L23.7,9.965 C21.88,9.965 21.525,10.825 21.525,12.095 L21.525,14.89 L25.875,14.89 L25.31,19.28 L21.5,19.28 L21.5,30.5 L28.9,30.5 C29.7836556,30.5 30.5,29.7836556 30.5,28.9 L30.5,3.1 C30.5,2.2163444 29.7836556,1.5 28.9,1.5 Z" id="Icon" fill="#000000"></path>
    </g>
</svg>