<?xml version="1.0" encoding="UTF-8"?>
<svg width="16px" height="16px" viewBox="0 0 16 16" version="1.1" xmlns="http://www.w3.org/2000/svg" xmlns:xlink="http://www.w3.org/1999/xlink">
    <!-- Generator: Sketch 52 (66869) - http://www.bohemiancoding.com/sketch -->
    <title>Icon</title>
    <desc>Created with Sketch.</desc>
    <g id="Symbols" stroke="none" stroke-width="1" fill="none" fill-rule="evenodd">
        <g id="_Icons-/-16px---Social--/-Facebook" fill="#000000">
            <path d="M15.1172414,0 L0.882758621,0 C0.395224497,-2.98528552e-17 5.97057104e-17,0.395224497 0,0.882758621 L0,15.1172414 C5.97057104e-17,15.6047755 0.395224497,16 0.882758621,16 L8.55172414,16 L8.55172414,9.81241379 L6.46896552,9.81241379 L6.46896552,7.39034483 L8.55172414,7.39034483 L8.55172414,5.60827586 C8.55172414,3.54206897 9.81517241,2.41655172 11.657931,2.41655172 C12.2789169,2.41519747 12.8995442,2.44650508 13.5172414,2.51034483 L13.5172414,4.67034483 L12.2482759,4.67034483 C11.2441379,4.67034483 11.0482759,5.14482759 11.0482759,5.84551724 L11.0482759,7.38758621 L13.4482759,7.38758621 L13.1365517,9.80965517 L11.0344828,9.80965517 L11.0344828,16 L15.1172414,16 C15.6047755,16 16,15.6047755 16,15.1172414 L16,0.882758621 C16,0.395224497 15.6047755,2.98528552e-17 15.1172414,0 Z" id="Icon"></path>
        </g>
    </g>
</svg>