<?xml version="1.0" encoding="UTF-8"?>
<svg width="24px" height="24px" viewBox="0 0 24 24" version="1.1" xmlns="http://www.w3.org/2000/svg" xmlns:xlink="http://www.w3.org/1999/xlink">
    <!-- Generator: Sketch 52 (66869) - http://www.bohemiancoding.com/sketch -->
    <title>Inputs / _/ Black / Hide - On</title>
    <desc>Created with Sketch.</desc>
    <g id="Inputs-/-_/-Black-/-Hide---On" stroke="none" stroke-width="1" fill="none" fill-rule="evenodd">
        <path d="M10.5078675,16.8797194 L12.4473397,14.9402472 C13.7460767,14.7460797 14.7727063,13.7194501 14.9668738,12.4207131 L18.4743622,8.91322472 C19.6991495,9.69623247 20.8743621,10.716282 22,11.9733733 C19.0152317,15.3067067 15.6818983,16.9733733 12,16.9733733 C11.4960936,16.9733733 10.9987161,16.9421554 10.5078675,16.8797194 Z M7.0838842,15.8894891 C5.28970916,15.0601019 3.5950811,13.75473 2,11.9733733 C4.98476833,8.64004001 8.31810167,6.97337334 12,6.97337334 C13.194582,6.97337334 14.3524719,7.14881676 15.4736697,7.4997036 L19,3.97337334 L20.4142136,5.38758691 L6.41421356,19.3875869 L5,17.9733733 L7.0838842,15.8894891 Z M13.5618671,9.41150629 C13.1069189,9.1335492 12.572165,8.97337334 12,8.97337334 C10.3431458,8.97337334 9,10.3165191 9,11.9733733 C9,12.5455383 9.16017586,13.0802922 9.43813295,13.5352404 L13.5618671,9.41150629 Z" id="Combined-Shape" fill="#000000"></path>
    </g>
</svg>