<?xml version="1.0" encoding="UTF-8"?>
<svg width="30px" height="30px" viewBox="0 0 30 30" version="1.1" xmlns="http://www.w3.org/2000/svg" xmlns:xlink="http://www.w3.org/1999/xlink">
    <!-- Generator: Sketch 52 (66869) - http://www.bohemiancoding.com/sketch -->
    <title>Icon</title>
    <desc>Created with Sketch.</desc>
    <g id="Symbols" stroke="none" stroke-width="1" fill="none" fill-rule="evenodd">
        <g id="_Icons-/-32px---Social--/-Instagram" transform="translate(-1.000000, -1.000000)" fill="#000000">
            <path d="M15.9949812,1.49952679 C19.9316736,1.49952679 20.4253065,1.51621329 21.9713978,1.58675694 C23.5142669,1.65712798 24.5679911,1.90218948 25.4900069,2.26054663 C26.4432093,2.63092956 27.2515843,3.12657639 28.0574851,3.93241964 C28.8633284,4.73832044 29.3589752,5.54669544 29.7294157,6.49989782 C30.0877153,7.42191369 30.3327768,8.4756379 30.4031478,10.0185069 C30.4736915,11.5645982 30.490378,12.0582312 30.490378,15.9949812 C30.490378,19.9316736 30.4736915,20.4253065 30.4031478,21.9713978 C30.3327768,23.5142669 30.0877153,24.5679911 29.7294157,25.4900069 C29.3589752,26.4432093 28.8633284,27.2515843 28.0574851,28.0574851 C27.2515843,28.8633284 26.4432093,29.3589752 25.4900069,29.7294157 C24.5679911,30.0877153 23.5142669,30.3327768 21.9713978,30.4031478 C20.4253065,30.4736915 19.9316736,30.490378 15.9949812,30.490378 C12.0582312,30.490378 11.5645982,30.4736915 10.0185069,30.4031478 C8.4756379,30.3327768 7.42191369,30.0877153 6.49989782,29.7294157 C5.54669544,29.3589752 4.73832044,28.8633284 3.93241964,28.0574851 C3.12657639,27.2515843 2.63092956,26.4432093 2.26054663,25.4900069 C1.90218948,24.5679911 1.65712798,23.5142669 1.58675694,21.9713978 C1.51621329,20.4253065 1.49952679,19.9316736 1.49952679,15.9949812 C1.49952679,12.0582312 1.51621329,11.5645982 1.58675694,10.0185069 C1.65712798,8.4756379 1.90218948,7.42191369 2.26054663,6.49989782 C2.63092956,5.54669544 3.12657639,4.73832044 3.93241964,3.93241964 C4.73832044,3.12657639 5.54669544,2.63092956 6.49989782,2.26054663 C7.42191369,1.90218948 8.4756379,1.65712798 10.0185069,1.58675694 C11.5645982,1.51621329 12.0582312,1.49952679 15.9949812,1.49952679 Z M21.8523482,4.19583631 C20.3238641,4.12609821 19.8653879,4.11131052 15.9949812,4.11131052 C12.1245169,4.11131052 11.6660407,4.12609821 10.1375565,4.19583631 C8.72426687,4.26028075 7.95674504,4.49642361 7.44596528,4.69493552 C6.76935615,4.95789187 6.28648313,5.27200099 5.77927083,5.77927083 C5.27200099,6.28648313 4.95789187,6.76935615 4.69493552,7.44596528 C4.49642361,7.95674504 4.26028075,8.72426687 4.19583631,10.1375565 C4.12609821,11.6660407 4.11131052,12.1245169 4.11131052,15.9949812 C4.11131052,19.8653879 4.12609821,20.3238641 4.19583631,21.8523482 C4.26028075,23.2656379 4.49642361,24.0331597 4.69493552,24.5439395 C4.95789187,25.2205486 5.27205853,25.7034216 5.77927083,26.2106339 C6.28648313,26.7179038 6.76935615,27.0320129 7.44596528,27.2949692 C7.95674504,27.4934812 8.72426687,27.729624 10.1375565,27.7940685 C11.6658681,27.8638065 12.1242292,27.8785942 15.9949812,27.8785942 C19.8656756,27.8785942 20.3240942,27.8638065 21.8523482,27.7940685 C23.2656379,27.729624 24.0331597,27.4934812 24.5439395,27.2949692 C25.2205486,27.0320129 25.7034216,26.7179038 26.2106339,26.2106339 C26.7179038,25.7034216 27.0320129,25.2205486 27.2949692,24.5439395 C27.4934812,24.0331597 27.729624,23.2656379 27.7940685,21.8523482 C27.8638065,20.3238641 27.8785942,19.8653879 27.8785942,15.9949812 C27.8785942,12.1245169 27.8638065,11.6660407 27.7940685,10.1375565 C27.729624,8.72426687 27.4934812,7.95674504 27.2949692,7.44596528 C27.0320129,6.76935615 26.7179038,6.28648313 26.2106339,5.77927083 C25.7034216,5.27200099 25.2205486,4.95789187 24.5439395,4.69493552 C24.0331597,4.49642361 23.2656379,4.26028075 21.8523482,4.19583631 Z M15.9949812,8.55136012 C20.1059613,8.55136012 23.4385446,11.8839435 23.4385446,15.9949812 C23.4385446,20.1059613 20.1059613,23.4385446 15.9949812,23.4385446 C11.8839435,23.4385446 8.55136012,20.1059613 8.55136012,15.9949812 C8.55136012,11.8839435 11.8839435,8.55136012 15.9949812,8.55136012 Z M15.9949812,20.8267609 C13.3264058,20.8267609 11.1631438,18.663499 11.1631438,15.9949812 C11.1631438,13.3264058 13.3264058,11.1631438 15.9949812,11.1631438 C18.663499,11.1631438 20.8267609,13.3264058 20.8267609,15.9949812 C20.8267609,18.663499 18.663499,20.8267609 15.9949812,20.8267609 Z M25.4721121,8.2572748 C25.4721121,9.21795734 24.6933125,9.9966994 23.73263,9.9966994 C22.772005,9.9966994 21.9932054,9.21795734 21.9932054,8.2572748 C21.9932054,7.29659226 22.772005,6.51779266 23.73263,6.51779266 C24.6933125,6.51779266 25.4721121,7.29659226 25.4721121,8.2572748 Z" id="Icon"></path>
        </g>
    </g>
</svg>