<?xml version="1.0" encoding="UTF-8"?>
<svg width="32px" height="32px" viewBox="0 0 32 32" version="1.1" xmlns="http://www.w3.org/2000/svg" xmlns:xlink="http://www.w3.org/1999/xlink">
    <!-- Generator: Sketch 52 (66869) - http://www.bohemiancoding.com/sketch -->
    <title>_Icons / 32px - Social  / Linkedin</title>
    <desc>Created with Sketch.</desc>
    <g id="_Icons-/-32px---Social--/-Linkedin" stroke="none" stroke-width="1" fill="none" fill-rule="evenodd">
        <path d="M26.2125951,26.2112222 L21.9123007,26.2112222 L21.9123007,19.48 C21.9123007,17.8753333 21.8832991,15.8115 19.6759542,15.8115 C17.4396078,15.8115 17.0980332,17.5611667 17.0980332,19.3656111 L17.0980332,26.2112222 L12.8009612,26.2112222 L12.8009612,12.3717778 L16.9224124,12.3717778 L16.9224124,14.2632222 L16.9820268,14.2632222 C17.5572254,13.1757222 18.9589699,12.0286111 21.0519196,12.0286111 C25.408606,12.0286111 26.2125951,14.8931667 26.2125951,18.6212778 L26.2125951,26.2112222 Z M7.95124729,10.4819444 C6.56883716,10.4819444 5.45388633,9.36383333 5.45388633,7.98633333 C5.45388633,6.61044444 6.56883716,5.49233333 7.95124729,5.49233333 C9.32560142,5.49233333 10.4437747,6.61044444 10.4437747,7.98633333 C10.4437747,9.36383333 9.32560142,10.4819444 7.95124729,10.4819444 Z M5.79546086,26.2112222 L10.1022001,26.2112222 L10.1022001,12.3717778 L5.79546086,12.3717778 L5.79546086,26.2112222 Z M28.3538808,1.5 L3.63806323,1.5 C2.45866437,1.5 1.5,2.43605556 1.5,3.59122222 L1.5,28.4071667 C1.5,29.5623333 2.45866437,30.5 3.63806323,30.5 L28.3538808,30.5 C29.536502,30.5 30.5,29.5623333 30.5,28.4071667 L30.5,3.59122222 C30.5,2.43605556 29.536502,1.5 28.3538808,1.5 Z" id="Icon" fill="#000000"></path>
    </g>
</svg>