<?xml version="1.0" encoding="UTF-8"?>
<svg width="32px" height="32px" viewBox="0 0 32 32" version="1.1" xmlns="http://www.w3.org/2000/svg" xmlns:xlink="http://www.w3.org/1999/xlink">
    <!-- Generator: Sketch 52 (66869) - http://www.bohemiancoding.com/sketch -->
    <title>_Icons / 32px - Social  / Copy Link</title>
    <desc>Created with Sketch.</desc>
    <g id="_Icons-/-32px---Social--/-Copy-Link" stroke="none" stroke-width="1" fill="none" fill-rule="evenodd">
        <path d="M22.4476886,3.50656717 C20.8623786,3.58256128 19.3378959,4.27410824 18.1593674,5.45201656 L13.5364964,10.0724589 C14.2626219,9.34291535 16.9580292,9.84447652 17.6119221,10.4980259 L20.4099757,7.70144242 C21.0296535,7.08209013 21.805201,6.70211954 22.5997567,6.66792243 C23.139599,6.64132425 23.9037411,6.75531591 24.5766423,7.4278636 C25.2039231,8.05481482 25.336983,8.78435835 25.336983,9.28212006 C25.336983,10.1142559 24.9568127,10.9425913 24.3029197,11.5923412 L19.4367397,16.4863623 C18.2125917,17.7098681 16.3497567,17.80866 15.270073,16.7295435 C14.6541976,16.1139917 13.6391426,16.1101912 13.0194647,16.7295435 C12.3997869,17.3488958 12.3997869,18.3596171 13.0194647,18.9789694 C14.129562,20.0884835 15.5894161,20.65084 17.0948905,20.65084 C18.7220195,20.65084 20.3833635,19.9858912 21.6569343,18.7053906 L26.553528,13.8417671 C27.7966852,12.6030635 28.5,10.9463917 28.5,9.28212006 C28.5,7.73563953 27.9145382,6.2651541 26.8272506,5.17843774 C25.6639299,4.01572824 24.1014297,3.43057305 22.4476886,3.50656717 Z M14.9051095,11.34916 C13.2779805,11.34916 11.5900243,12.0179083 10.3126521,13.2946094 L5.44647202,18.1582329 C4.20331484,19.3969375 3.5,21.0536093 3.5,22.7178799 C3.5,24.2643605 4.08546277,25.7348469 5.17274939,26.8215623 C6.33607105,27.9842727 7.89857032,28.5694269 9.55231144,28.4934328 C11.1376214,28.4174387 12.6621051,27.7258927 13.8406326,26.5479834 L18.4635036,21.9275411 C17.7335766,22.6570846 15.0419708,22.1555235 14.3880779,21.5019741 L11.5900243,24.2985576 C10.9703465,24.9179099 10.194799,25.294081 9.40024331,25.3320776 C8.86040195,25.3586757 8.09625888,25.2446841 7.42335766,24.5721364 C6.79607689,23.9451852 6.66301703,23.2118422 6.66301703,22.7178799 C6.66301703,21.8857441 7.04318735,21.0574087 7.69708029,20.4076588 L12.5632603,15.5136376 C13.7874092,14.2901329 15.6502433,14.1951395 16.729927,15.2704565 C17.3496049,15.8898088 18.3646599,15.8898088 18.9805353,15.2704565 C19.6002131,14.6511042 19.6002131,13.6403829 18.9805353,13.0210306 C17.870438,11.9115165 16.4067825,11.34916 14.9051095,11.34916 Z" id="Icon" fill="#000000"></path>
    </g>
</svg>