<?xml version="1.0" encoding="UTF-8"?>
<svg width="16px" height="16px" viewBox="0 0 16 16" version="1.1" xmlns="http://www.w3.org/2000/svg" xmlns:xlink="http://www.w3.org/1999/xlink">
    <!-- Generator: Sketch 52 (66869) - http://www.bohemiancoding.com/sketch -->
    <title>Icon</title>
    <desc>Created with Sketch.</desc>
    <g id="Symbols" stroke="none" stroke-width="1" fill="none" fill-rule="evenodd">
        <g id="_Icons-/-16px---Social--/-Pinterest" fill="#000000">
            <path d="M7.99996721,0 C3.58172838,0 0,3.58194859 0,8.00045904 C0,11.3897938 2.10865422,14.2873304 5.08457487,15.4530474 C5.01466893,14.8200516 4.95151751,13.8465549 5.11237986,13.1555191 C5.25770027,12.53118 6.05040474,9.17876785 6.05040474,9.17876785 C6.05040474,9.17876785 5.81111134,8.69949581 5.81111134,7.99094968 C5.81111134,6.87848503 6.45587229,6.04795669 7.25867574,6.04795669 C7.9412095,6.04795669 8.27086911,6.56047872 8.27086911,7.1749805 C8.27086911,7.86135997 7.83385864,8.88765009 7.60833658,9.83871784 C7.41986598,10.635078 8.00763981,11.2844694 8.79299957,11.2844694 C10.2148575,11.2844694 11.3078427,9.78513748 11.3078427,7.62080581 C11.3078427,5.70529161 9.93149579,4.36591383 7.96619464,4.36591383 C5.68998914,4.36591383 4.35384142,6.07333686 4.35384142,7.83794726 C4.35384142,8.5255072 4.61871017,9.26290934 4.94922229,9.66367992 C5.01460336,9.74290278 5.02417772,9.81235394 5.00476669,9.89315076 C4.94397606,10.1459031 4.80901695,10.6893142 4.78252352,10.8004754 C4.74763613,10.9469197 4.66658196,10.9779399 4.51496608,10.907505 C3.51582269,10.442333 2.89112855,8.98149769 2.89112855,7.80804194 C2.89112855,5.28432182 4.72468389,2.96665982 8.17702728,2.96665982 C10.9522143,2.96665982 13.1088714,4.94428002 13.1088714,7.58729349 C13.1088714,10.3446161 11.3704695,12.563643 8.95759985,12.563643 C8.14699264,12.563643 7.38484743,12.1424765 7.12397893,11.6449727 C7.12397893,11.6449727 6.72283952,13.1725048 6.62558764,13.5467803 C6.44498637,14.241751 5.95741541,15.1128089 5.63129701,15.6441529 C6.37980204,15.8759191 7.17526077,16.0009837 7.99996721,16.0009837 C12.4182716,16.0009837 16,12.4190351 16,8.00045904 C16,3.58194859 12.4182716,0 7.99996721,0" id="Icon"></path>
        </g>
    </g>
</svg>