<?xml version="1.0" encoding="UTF-8"?>
<svg width="30px" height="30px" viewBox="0 0 30 30" version="1.1" xmlns="http://www.w3.org/2000/svg" xmlns:xlink="http://www.w3.org/1999/xlink">
    <!-- Generator: Sketch 52 (66869) - http://www.bohemiancoding.com/sketch -->
    <title>Icon</title>
    <desc>Created with Sketch.</desc>
    <g id="Symbols" stroke="none" stroke-width="1" fill="none" fill-rule="evenodd">
        <g id="_Icons-/-32px---Social--/-Pinterest" transform="translate(-1.000000, -1.000000)" fill="#000000">
            <path d="M15.998957,1.5 C7.99139139,1.5 1.49990779,7.9918827 1.49990779,15.9999406 C1.49990779,22.1427321 5.32160861,27.3941943 10.7151332,29.5069267 C10.5884365,28.3596922 10.4739816,26.5953378 10.7655266,25.3429125 C11.0289037,24.2113675 12.4655922,18.135494 12.4655922,18.135494 C12.4655922,18.135494 12.0318996,17.2668668 12.0318996,15.9827059 C12.0318996,13.9664877 13.200457,12.4612476 14.6554488,12.4612476 C15.8924652,12.4612476 16.4899365,13.3901367 16.4899365,14.5038527 C16.4899365,15.747839 15.6979037,17.6078755 15.2891701,19.3315798 C14.9475881,20.7748939 16.0128627,21.9518434 17.4362398,21.9518434 C20.0131988,21.9518434 21.9941127,19.2344714 21.9941127,15.3118614 C21.9941127,11.8402053 19.4996373,9.41273234 15.937748,9.41273234 C11.8123791,9.41273234 9.39076025,12.5072463 9.39076025,15.7054061 C9.39076025,16.9515319 9.87080533,18.2879911 10.4698217,19.0143431 C10.5883176,19.1579257 10.6056701,19.2837982 10.5704898,19.4302334 C10.4603135,19.888319 10.2157152,20.873191 10.1676988,21.0746583 C10.1044693,21.3400721 9.95756762,21.3962928 9.68278074,21.2686374 C7.87194467,20.4255651 6.73975615,17.7779638 6.73975615,15.651206 C6.73975615,11.0772445 10.0628709,6.87674037 16.3198586,6.87674037 C21.3495758,6.87674037 25.2582766,10.4609566 25.2582766,15.251124 C25.2582766,20.248464 22.1076168,24.2702031 17.7345594,24.2702031 C16.2654242,24.2702031 14.8841209,23.5068857 14.4113258,22.6052155 C14.4113258,22.6052155 13.6843053,25.3736972 13.5080471,26.0520298 C13.1807275,27.3115868 12.2970594,28.8902822 11.7060061,29.853284 C13.0625881,30.2733344 14.5042684,30.5 15.998957,30.5 C24.0066414,30.5 30.498125,24.0081173 30.498125,15.9999406 C30.498125,7.9918827 24.0066414,1.5 15.998957,1.5" id="Icon"></path>
        </g>
    </g>
</svg>