<?xml version="1.0" encoding="UTF-8"?>
<svg width="24px" height="24px" viewBox="0 0 24 24" version="1.1" xmlns="http://www.w3.org/2000/svg" xmlns:xlink="http://www.w3.org/1999/xlink">
    <!-- Generator: Sketch 52 (66869) - http://www.bohemiancoding.com/sketch -->
    <title>_Icons / 24px  / Profile</title>
    <desc>Created with Sketch.</desc>
    <g id="_Icons-/-24px--/-Profile" stroke="none" stroke-width="1" fill="none" fill-rule="evenodd">
        <path d="M14.9657602,12.5284984 C18.2880067,13.7507482 20.6617958,16.9589347 20.6227273,20.7363636 L18.8454545,20.6863636 C18.8454545,16.8883382 15.784389,13.8272727 11.9863636,13.8272727 C8.18833824,13.8272727 5.12727273,16.8883382 5.07727273,20.7363636 L3.3,20.6863636 C3.3,16.9480592 5.68225927,13.748454 9.00629528,12.5280307 C7.64698591,11.5815073 6.75454545,10.0075793 6.75454545,8.23181818 C6.75454545,5.35015522 9.10470067,3 11.9863636,3 C14.8680266,3 17.2181818,5.35015522 17.2181818,8.23181818 C17.2181818,10.0078718 16.3254473,11.5820258 14.9657602,12.5284984 Z M11.9863636,4.82727273 C10.0977847,4.82727273 8.58181818,6.34323924 8.58181818,8.23181818 C8.58181818,10.1203971 10.0977847,11.6363636 11.9863636,11.6363636 C13.8749426,11.6363636 15.3909091,10.1203971 15.3909091,8.23181818 C15.3909091,6.34323924 13.8749426,4.82727273 11.9863636,4.82727273 Z" id="Combined-Shape" fill="#000000"></path>
    </g>
</svg>