<?xml version="1.0" encoding="UTF-8"?>
<svg width="24px" height="24px" viewBox="0 0 24 24" version="1.1" xmlns="http://www.w3.org/2000/svg" xmlns:xlink="http://www.w3.org/1999/xlink">
    <!-- Generator: Sketch 52 (66869) - http://www.bohemiancoding.com/sketch -->
    <title>_Icons / 24px  / Search</title>
    <desc>Created with Sketch.</desc>
    <g id="_Icons-/-24px--/-Search" stroke="none" stroke-width="1" fill="none" fill-rule="evenodd">
        <path d="M15.9492228,14.5350093 L21.0954905,19.6812769 L19.6812769,21.0954905 L14.5350093,15.9492228 C13.3290971,16.859932 11.8276183,17.4 10.2,17.4 C6.2235498,17.4 3,14.1764502 3,10.2 C3,6.2235498 6.2235498,3 10.2,3 C14.1764502,3 17.4,6.2235498 17.4,10.2 C17.4,11.8276183 16.859932,13.3290971 15.9492228,14.5350093 Z M10.2,15.4 C13.0718807,15.4 15.4,13.0718807 15.4,10.2 C15.4,7.3281193 13.0718807,5 10.2,5 C7.3281193,5 5,7.3281193 5,10.2 C5,13.0718807 7.3281193,15.4 10.2,15.4 Z" id="Icon" fill="#000000"></path>
    </g>
</svg>