<?xml version="1.0" encoding="UTF-8"?>
<svg width="16px" height="16px" viewBox="0 0 16 16" version="1.1" xmlns="http://www.w3.org/2000/svg" xmlns:xlink="http://www.w3.org/1999/xlink">
    <!-- Generator: Sketch 52 (66869) - http://www.bohemiancoding.com/sketch -->
    <title>Icon</title>
    <desc>Created with Sketch.</desc>
    <g id="Symbols" stroke="none" stroke-width="1" fill="none" fill-rule="evenodd">
        <g id="_Icons-/-16px---Social--/-Tumblr" fill="#000000">
            <path d="M8.01223553,0 C12.4170278,0 16,3.56224451 16,7.99423502 C16,12.4026555 12.4170278,16 8.01223553,16 C3.58297222,16 0,12.4026555 0,7.99423502 C0,3.58581459 3.58297222,0 8.01223553,0 Z M8.63216926,9.79780497 L8.63216926,7.39120841 L10.3298496,7.39120841 L10.3298496,5.65202252 L8.63216926,5.65202252 L8.63216926,3.27899547 L7.17716034,3.27899547 C7.1098649,4.32393549 6.52357889,5.53060092 5.12261025,5.89476369 L5.12261025,7.39120841 L6.39510579,7.39120841 L6.39510579,10.1550294 C6.39510579,11.8808487 7.43920469,12.6023379 8.84119296,12.6023379 L10.397145,12.6023379 L10.397145,10.7685656 L9.57532501,10.7685656 C8.9961764,10.7685656 8.63216926,10.5191921 8.63216926,9.79780497 Z" id="Icon"></path>
        </g>
    </g>
</svg>