<?xml version="1.0" encoding="UTF-8"?>
<svg width="16px" height="16px" viewBox="0 0 16 16" version="1.1" xmlns="http://www.w3.org/2000/svg" xmlns:xlink="http://www.w3.org/1999/xlink">
    <!-- Generator: Sketch 52 (66869) - http://www.bohemiancoding.com/sketch -->
    <title>Icon</title>
    <desc>Created with Sketch.</desc>
    <g id="Symbols" stroke="none" stroke-width="1" fill="none" fill-rule="evenodd">
        <g id="_Icons-/-16px---Social--/-Twitter-1" fill="#000000">
            <path d="M14,16 L2,16 C0.896,16 0,15.104 0,14 L0,2 C0,0.896 0.896,0 2,0 L14,0 C15.104,0 16,0.896 16,2 L16,14 C16,15.104 15.104,16 14,16 Z M6.144,12.064 C9.916,12.064 11.98,8.936 11.98,6.228 C11.98,6.14 11.98,6.052 11.976,5.964 C12.376,5.676 12.724,5.312 13,4.9 C12.632,5.064 12.236,5.172 11.82,5.224 C12.244,4.972 12.568,4.568 12.724,4.088 C12.328,4.324 11.888,4.492 11.42,4.584 C11.044,4.184 10.512,3.936 9.924,3.936 C8.792,3.936 7.872,4.856 7.872,5.988 C7.872,6.148 7.892,6.304 7.924,6.456 C6.22,6.372 4.708,5.552 3.696,4.312 C3.52,4.616 3.42,4.968 3.42,5.344 C3.42,6.056 3.784,6.684 4.332,7.052 C3.996,7.04 3.68,6.948 3.404,6.796 C3.404,6.804 3.404,6.812 3.404,6.824 C3.404,7.816 4.112,8.648 5.048,8.836 C4.876,8.884 4.696,8.908 4.508,8.908 C4.376,8.908 4.248,8.896 4.124,8.872 C4.384,9.688 5.144,10.28 6.04,10.296 C5.336,10.848 4.452,11.176 3.492,11.176 C3.328,11.176 3.164,11.168 3.004,11.148 C3.908,11.724 4.988,12.064 6.144,12.064 Z" id="Icon"></path>
        </g>
    </g>
</svg>