<?xml version="1.0" encoding="UTF-8"?>
<svg width="53px" height="14px" viewBox="0 0 53 14" version="1.1" xmlns="http://www.w3.org/2000/svg" xmlns:xlink="http://www.w3.org/1999/xlink">
    <!-- Generator: Sketch 52 (66869) - http://www.bohemiancoding.com/sketch -->
    <title>Acme</title>
    <desc>Created with Sketch.</desc>
    <g id="Symbols" stroke="none" stroke-width="1" fill="none" fill-rule="evenodd">
        <g id="-Badges-&amp;-Logos-/-Company-Logo" fill="#000000">
            <path d="M9.34470465,10.7890785 L3.41624131,10.7890785 L2.35045015,13.81843 L0,13.81843 L4.99589607,0.19112628 L7.76504989,0.19112628 L12.760946,13.81843 L10.4200118,13.81843 L9.34470465,10.7890785 Z M8.65955318,8.83003413 L6.38523097,2.3890785 L4.11090876,8.83003413 L8.65955318,8.83003413 Z M19.6681971,14 C18.3676716,14 17.1972162,13.7149062 16.1567959,13.1447099 C15.1163755,12.5745136 14.2995943,11.7606424 13.7064278,10.7030717 C13.1132613,9.64550097 12.8166825,8.40956339 12.8166825,6.99522184 C12.8166825,5.58725121 13.1132613,4.35449903 13.7064278,3.29692833 C14.2995943,2.23935762 15.1163755,1.42548635 16.1567959,0.855290102 C17.1972162,0.28509385 18.3676716,0 19.6681971,0 C20.6134571,0 21.4952636,0.154492198 22.313643,0.463481229 C23.1320225,0.772470259 23.8473007,1.21842712 24.4594993,1.80136519 C25.0716979,2.38430326 25.5459068,3.0803145 25.8821402,3.8894198 L23.7600739,4.70170648 C23.4111524,3.89260119 22.8735042,3.26189077 22.1471131,2.80955631 C21.4207221,2.35722186 20.594425,2.13105802 19.6681971,2.13105802 C18.8054095,2.13105802 18.0266919,2.3253678 17.3320209,2.71399317 C16.63735,3.10261855 16.0901859,3.66484274 15.6905122,4.40068259 C15.2908385,5.13652245 15.0910047,6.00136022 15.0910047,6.99522184 C15.0910047,7.99545438 15.2908385,8.86347755 15.6905122,9.59931741 C16.0901859,10.3351573 16.63735,10.8973814 17.3320209,11.2860068 C18.0266919,11.6746322 18.8054095,11.868942 19.6681971,11.868942 C20.600769,11.868942 21.4286521,11.6443708 22.1518711,11.1952218 C22.8750902,10.7460728 23.4111524,10.1169551 23.7600739,9.30784983 L25.8821402,10.1201365 C25.5459068,10.9228709 25.0716979,11.6156967 24.4594993,12.1986348 C23.8473007,12.7815729 23.1320225,13.2275297 22.313643,13.5365188 C21.4952636,13.8455078 20.6134571,14 19.6681971,14 Z M40.5258932,13.81843 L39.63139,3.05802048 L35.739349,13.81843 L34.3119501,13.81843 L30.4389412,3.07713311 L29.5349219,13.81843 L27.2701157,13.81843 L28.3549388,0.19112628 L31.5237643,0.19112628 L35.0161336,9.82389078 L38.5370508,0.19112628 L41.7058763,0.19112628 L42.7811835,13.81843 L40.5258932,13.81843 Z M47.7281401,2.22662116 L47.7281401,6.00136519 L52.3909765,6.00136519 L52.3909765,8.01774744 L47.7281401,8.01774744 L47.7281401,11.7733788 L53,11.7733788 L53,13.81843 L45.42527,13.81843 L45.42527,0.19112628 L53,0.19112628 L53,2.22662116 L47.7281401,2.22662116 Z" id="Acme"></path>
        </g>
    </g>
</svg>