<?xml version="1.0" encoding="UTF-8"?>
<svg width="45px" height="45px" viewBox="0 0 45 45" version="1.1" xmlns="http://www.w3.org/2000/svg" xmlns:xlink="http://www.w3.org/1999/xlink">
    <!-- Generator: Sketch 52 (66869) - http://www.bohemiancoding.com/sketch -->
    <title>Logo</title>
    <desc>Created with Sketch.</desc>
    <g id="Components---1440px" stroke="none" stroke-width="1" fill="none" fill-rule="evenodd">
        <g id="Center" transform="translate(-646.000000, -4722.000000)" fill="#000000" fill-rule="nonzero">
            <g id="Contents-6" transform="translate(0.000000, 4418.000000)">
                <g id="Content" transform="translate(450.000000, 60.000000)">
                    <g id="Logos" transform="translate(70.000000, 244.000000)">
                        <g id="Logo" transform="translate(126.419753, 0.000000)">
                            <path d="M21.8518519,0.147272727 C9.78345867,0.147272727 0,10.0376584 0,22.2381818 C0,34.4386816 9.78345867,44.3290909 21.8518519,44.3290909 C33.9203528,44.3290909 43.7037037,34.4386816 43.7037037,22.2381818 C43.7037037,10.0376584 33.9203528,0.147272727 21.8518519,0.147272727 Z M21.8518519,0.856432145 C27.5013714,0.856432145 32.8125805,3.08045356 36.8074195,7.11900016 C40.8022585,11.1573406 43.0022156,16.526863 43.0022156,22.2381818 C43.0022156,27.9494771 40.8022585,33.319026 36.8074195,37.357362 C32.8125805,41.3959484 27.5013714,43.6198991 21.8518519,43.6198991 C16.2023615,43.6198991 10.8910649,41.3959484 6.89628274,37.357362 C2.90140002,33.319026 0.701365778,27.9494771 0.701365778,22.2381818 C0.701365778,16.526863 2.90140002,11.1575453 6.89628274,7.11900016 C10.8910649,3.08045356 16.2023615,0.856432145 21.8518519,0.856432145 Z" id="path3350"></path>
                            <path d="M17.410259,13.1134081 L17.3608738,13.1134081 L17.3608738,19.7314822 C17.3608738,20.2835487 17.8077442,20.7353815 18.3540405,20.7353815 L19.2103126,20.7353815 L19.2103126,23.0420405 C19.2103126,23.5961542 19.6549686,24.0455275 20.203319,24.0455275 C20.7515674,24.0455275 21.1960923,23.5961542 21.1962963,23.0420405 L21.1962963,20.7353815 L22.5343143,20.7353815 L22.5343143,23.0420405 C22.5343143,23.5961542 22.9792472,24.0455275 23.5275684,24.0455275 C24.0758896,24.0455275 24.5202106,23.5961542 24.520604,23.0420405 L24.520604,20.7353815 L25.3550242,20.7353815 C25.9013205,20.7353815 26.3480743,20.2835487 26.3480743,19.7314822 L26.3480743,13.1134081 L17.410259,13.1134081 Z M19.3884635,10.7292276 C19.3884635,10.964864 19.5773509,11.1559091 19.8104227,11.1559091 C20.0435091,11.1559091 20.2325714,10.964864 20.2325714,10.7292276 C20.2325714,10.4935912 20.0435091,10.3025446 19.8104227,10.3025446 C19.5773509,10.3025446 19.3884635,10.4935912 19.3884635,10.7292276 Z M23.4765807,10.7292276 C23.4765807,10.964864 23.6655556,11.1559091 23.898642,11.1559091 C24.1317284,11.1559091 24.3207032,10.964864 24.3207032,10.7292276 C24.3207032,10.4935912 24.1317284,10.3025446 23.898642,10.3025446 C23.6655556,10.3025446 23.4765807,10.4935912 23.4765807,10.7292276 Z M17.3721057,12.7622039 C17.3703575,12.7163859 17.3691921,12.6705679 17.3691921,12.6245451 C17.3691921,12.3167039 17.4075348,12.0170451 17.4798499,11.7290445 C17.7585921,10.6189763 18.5445304,9.68195356 19.6068654,9.12579578 L18.917658,7.84043182 C18.8751489,7.76106802 18.9042556,7.66206835 18.9826309,7.61911331 C19.0609479,7.57615827 19.1589607,7.6056084 19.2014116,7.68477191 L19.8987479,8.98547727 C20.4919237,8.72529496 21.1584052,8.57945373 21.8627195,8.57945373 C22.5617748,8.57945373 23.2234052,8.72324935 23.8132012,8.97974984 L24.5076094,7.68477191 C24.5500894,7.60561282 24.6480148,7.57615827 24.7263173,7.61911331 C24.8046198,7.66206835 24.8337556,7.76106802 24.7912756,7.84043182 L24.1057684,9.11884009 C25.2202128,9.69790909 26.0325773,10.6952724 26.2784106,11.8724321 C26.3063373,12.0055903 26.326776,12.1410002 26.3397123,12.2782495 L26.3397123,12.7622039 L17.3720474,12.7622039 L17.3721057,12.7622039 Z M28.6848094,13.941614 C28.6848094,13.3875003 28.2400805,12.9381138 27.6917593,12.9381138 C27.143438,12.9381138 26.6989131,13.3875003 26.6987091,13.941614 L26.6987091,18.1585211 C26.6987091,18.7128409 27.143438,19.1622289 27.6917593,19.1622289 C28.2400805,19.1622289 28.6846054,18.7128409 28.6848094,18.1585211 L28.6848094,13.941614 Z M17.0051257,13.941614 L17.0051257,18.1585211 C17.0051257,18.7128409 16.560324,19.1622289 16.011959,19.1622289 C15.4636815,19.1622289 15.0192002,18.7128409 15.0189672,18.1585211 L15.0189672,13.941614 C15.0189672,13.3875003 15.4636815,12.9381138 16.011959,12.9381138 C16.560324,12.9381138 17.0048926,13.3875003 17.0051257,13.941614 Z" id="path3352"></path>
                            <path d="M34.8191049,26.2638229 L33.5375375,26.2638229 L30.7542526,33.0026253 L31.3230126,33.0026253 L28.5476235,26.2716284 L27.2280193,26.2716284 L30.3750793,33.6542924 L30.1248027,34.2292451 C29.8443706,34.8655958 29.3134435,35.1414818 28.8053879,35.1414818 L28.3881923,35.1414818 L28.3881923,36.2992516 L28.7902227,36.2992516 C29.9200363,36.2992516 30.814957,35.686008 31.2926677,34.5207273 L34.8191049,26.2638229 Z M26.5455422,33.9379396 L26.5455422,26.2716284 L25.4080368,26.2716284 L25.4080368,27.1456773 C24.7708951,26.5015211 23.891358,26.1182291 22.8902227,26.1182291 C20.7214264,26.1182291 19.0151756,27.896886 19.0151756,30.0970375 C19.0151756,32.3050975 20.7214264,34.0913389 22.8902227,34.0913389 C23.891358,34.0913389 24.7708951,33.7003151 25.4080368,33.0639938 L25.4080368,33.9379396 L26.5455422,33.9379396 Z M22.9737842,32.9721104 C21.4190686,32.9721104 20.1602563,31.6841073 20.1602563,30.0970375 C20.1602563,28.5179793 21.4190686,27.2298878 22.9737842,27.2298878 C23.9443706,27.2298878 24.8619444,27.6899531 25.3321672,28.4794527 C25.3548202,28.5254755 25.4080368,28.6021898 25.4080368,28.7324967 L25.4080368,31.4539936 C25.4003158,31.5920618 25.3548202,31.6765227 25.3246793,31.7147989 C24.8164198,32.4814271 23.9443706,32.9721104 22.9737842,32.9721104 Z M11.8564098,36.2378831 L11.8564098,33.0639938 C12.4934525,33.7080616 13.3731148,34.0989382 14.3741044,34.0989382 C16.5354128,34.0989382 18.2492244,32.312682 18.2492244,30.1125453 C18.2492244,27.9045 16.5354128,26.1182291 14.3741044,26.1182291 C13.3731148,26.1182291 12.4934525,26.5092676 11.8564098,27.1456773 L11.8564098,26.2716284 L10.7188592,26.2716284 L10.7188592,36.2378831 L11.8564098,36.2378831 Z M14.2907323,32.9796949 C13.3200002,32.9796949 12.4175785,32.512104 11.9322037,31.73013 C11.9019345,31.6841073 11.8564098,31.6074076 11.8564098,31.477086 L11.8564098,28.7249122 C11.8639997,28.5944285 11.9094414,28.5101444 11.9397907,28.4719565 C12.4479278,27.7052989 13.3200002,27.2374724 14.2907323,27.2374724 C15.8376978,27.2374724 17.096583,28.5254755 17.096583,30.1125453 C17.096583,31.6916182 15.8376978,32.9796949 14.2907323,32.9796949 Z" id="path3354"></path>
                        </g>
                    </g>
                </g>
            </g>
        </g>
    </g>
</svg>