<?xml version="1.0" encoding="UTF-8"?>
<svg width="123px" height="38px" viewBox="0 0 123 38" version="1.1" xmlns="http://www.w3.org/2000/svg" xmlns:xlink="http://www.w3.org/1999/xlink">
    <!-- Generator: Sketch 52 (66869) - http://www.bohemiancoding.com/sketch -->
    <title>Buttons / App Store</title>
    <desc>Created with Sketch.</desc>
    <g id="Symbols" stroke="none" stroke-width="1" fill="none" fill-rule="evenodd">
        <g id="Badges-&amp;-Logos-/-App-Store">
            <g id="Buttons-/-App-Store">
                <path d="M0,3.99484381 C0,1.7885525 1.78618025,0 4.00510362,0 L118.994896,0 C121.206854,0 123,1.78185079 123,3.99484381 L123,34.0051562 C123,36.2114475 121.21382,38 118.994896,38 L4.00510362,38 C1.79314597,38 0,36.2181492 0,34.0051562 L0,3.99484381 Z" id="button" fill="#000000"></path>
                <path d="M38.8301263,6.51658093 L41.0167666,6.51658093 C42.8354423,6.51658093 43.9055004,7.63316324 43.9055004,9.55757592 C43.9055004,11.4862181 42.8354423,12.6197183 41.0167666,12.6197183 L38.8301263,12.6197183 L38.8301263,6.51658093 Z M39.7775294,7.33287027 L39.7775294,11.7991995 L40.9279476,11.7991995 C42.222168,11.7991995 42.9411793,11.008287 42.9411793,9.56603488 C42.9411793,8.12801221 42.222168,7.33287027 40.9279476,7.33287027 L39.7775294,7.33287027 Z M47.2800383,12.6747015 C45.951982,12.6747015 45.1060863,11.7695931 45.1060863,10.3231115 C45.1060863,8.88085938 45.9562115,7.96729203 47.2800383,7.96729203 C48.603865,7.96729203 49.4497607,8.8766299 49.4497607,10.3231115 C49.4497607,11.7695931 48.6080945,12.6747015 47.2800383,12.6747015 Z M47.2800383,11.9133954 C48.0582623,11.9133954 48.5192754,11.3254979 48.5192754,10.3231115 C48.5192754,9.32072513 48.0582623,8.72859815 47.2800383,8.72859815 C46.5018142,8.72859815 46.0365716,9.32495461 46.0365716,10.3231115 C46.0365716,11.3254979 46.5018142,11.9133954 47.2800383,11.9133954 Z M56.8000083,8.02650473 L55.5353942,12.6197183 L54.5879911,12.6197183 L53.6109816,9.16000495 L53.5898342,9.16000495 L52.6212836,12.6197183 L51.6781099,12.6197183 L50.4092664,8.02650473 L51.3228337,8.02650473 L52.1771884,11.6638562 L52.1941063,11.6638562 L53.1668863,8.02650473 L54.0466178,8.02650473 L55.0236274,11.6638562 L55.0405453,11.6638562 L55.8948999,8.02650473 L56.8000083,8.02650473 Z M57.9794469,12.6197183 L57.9794469,8.02650473 L58.8549489,8.02650473 L58.8549489,8.80049928 L58.8718668,8.80049928 C59.1510124,8.25912605 59.6120255,7.97575099 60.3225779,7.97575099 C61.3376527,7.97575099 61.9170913,8.61863171 61.9170913,9.67600132 L61.9170913,12.6197183 L60.9992945,12.6197183 L60.9992945,9.84940994 C60.9992945,9.15154599 60.6778541,8.76243398 60.005367,8.76243398 C59.3117326,8.76243398 58.8972437,9.24459452 58.8972437,9.96783533 L58.8972437,12.6197183 L57.9794469,12.6197183 Z M63.4729534,12.6197183 L63.4729534,6.24166483 L64.3907503,6.24166483 L64.3907503,12.6197183 L63.4729534,12.6197183 Z M67.9344673,12.6747015 C66.606411,12.6747015 65.7605154,11.7695931 65.7605154,10.3231115 C65.7605154,8.88085938 66.6106405,7.96729203 67.9344673,7.96729203 C69.258294,7.96729203 70.1041897,8.8766299 70.1041897,10.3231115 C70.1041897,11.7695931 69.2625235,12.6747015 67.9344673,12.6747015 Z M67.9344673,11.9133954 C68.7126913,11.9133954 69.1737045,11.3254979 69.1737045,10.3231115 C69.1737045,9.32072513 68.7126913,8.72859815 67.9344673,8.72859815 C67.1562432,8.72859815 66.6910006,9.32495461 66.6910006,10.3231115 C66.6910006,11.3254979 67.1562432,11.9133954 67.9344673,11.9133954 Z M73.0346324,11.9345428 C73.7155784,11.9345428 74.2315747,11.4989065 74.2315747,10.8940911 L74.2315747,10.5345854 L73.1149924,10.6107161 C72.4890296,10.6487814 72.1633598,10.8814027 72.1633598,11.2874326 C72.1633598,11.6807741 72.5059475,11.9345428 73.0346324,11.9345428 Z M72.7893226,12.6662426 C71.8715258,12.6662426 71.237104,12.1248693 71.237104,11.3043505 C71.237104,10.5007496 71.8588373,10.035507 72.9923376,9.96360585 L74.2315747,9.89170472 L74.2315747,9.53642853 C74.2315747,9.01197321 73.880528,8.72436867 73.2672537,8.72436867 C72.7681752,8.72436867 72.4044401,8.98236686 72.32408,9.37993783 L71.4654959,9.37993783 C71.4908727,8.56787797 72.2606378,7.96729203 73.2926305,7.96729203 C74.4134423,7.96729203 75.1366831,8.55941901 75.1366831,9.46875688 L75.1366831,12.6197183 L74.2611811,12.6197183 L74.2611811,11.8541827 L74.2400337,11.8541827 C73.986265,12.3532612 73.4152854,12.6662426 72.7893226,12.6662426 Z M78.3885661,12.6662426 C77.238148,12.6662426 76.451465,11.7399868 76.451465,10.318882 C76.451465,8.90623625 77.238148,7.97998047 78.3801072,7.97998047 C79.0399058,7.97998047 79.5643611,8.28027344 79.8265888,8.78781085 L79.8477362,8.78781085 L79.8477362,6.24166483 L80.7613035,6.24166483 L80.7613035,12.6197183 L79.8731131,12.6197183 L79.8731131,11.8414943 L79.8561951,11.8414943 C79.5855085,12.3617201 79.0610532,12.6662426 78.3885661,12.6662426 Z M78.6211874,8.7582045 C77.8810287,8.7582045 77.3904092,9.37570835 77.3904092,10.3231115 C77.3904092,11.2747442 77.8767992,11.8880185 78.6211874,11.8880185 C79.3571167,11.8880185 79.8519657,11.2620557 79.8519657,10.3231115 C79.8519657,9.38839679 79.3571167,8.7582045 78.6211874,8.7582045 Z M86.8971049,12.6747015 C85.5690487,12.6747015 84.723153,11.7695931 84.723153,10.3231115 C84.723153,8.88085938 85.5732782,7.96729203 86.8971049,7.96729203 C88.2209317,7.96729203 89.0668273,8.8766299 89.0668273,10.3231115 C89.0668273,11.7695931 88.2251611,12.6747015 86.8971049,12.6747015 Z M86.8971049,11.9133954 C87.6753289,11.9133954 88.1363421,11.3254979 88.1363421,10.3231115 C88.1363421,9.32072513 87.6753289,8.72859815 86.8971049,8.72859815 C86.1188809,8.72859815 85.6536383,9.32495461 85.6536383,10.3231115 C85.6536383,11.3254979 86.1188809,11.9133954 86.8971049,11.9133954 Z M90.4027566,12.6197183 L90.4027566,8.02650473 L91.2782587,8.02650473 L91.2782587,8.80049928 L91.2951766,8.80049928 C91.5743221,8.25912605 92.0353353,7.97575099 92.7458877,7.97575099 C93.7609625,7.97575099 94.340401,8.61863171 94.340401,9.67600132 L94.340401,12.6197183 L93.4226042,12.6197183 L93.4226042,9.84940994 C93.4226042,9.15154599 93.1011639,8.76243398 92.4286768,8.76243398 C91.7350423,8.76243398 91.3205534,9.24459452 91.3205534,9.96783533 L91.3205534,12.6197183 L90.4027566,12.6197183 Z M98.7294278,6.99451199 L99.6429952,6.99451199 L99.6429952,8.02650473 L100.522727,8.02650473 L100.522727,8.74974554 L99.6429952,8.74974554 L99.6429952,11.317039 C99.6429952,11.7146099 99.8206333,11.900707 100.205516,11.900707 C100.302794,11.900707 100.459285,11.8880185 100.518497,11.8795596 L100.518497,12.6028004 C100.41699,12.6281773 100.201286,12.6493247 100.002501,12.6493247 C99.084704,12.6493247 98.7294278,12.2982779 98.7294278,11.4100875 L98.7294278,8.74974554 L98.0950061,8.74974554 L98.0950061,8.02650473 L98.7294278,8.02650473 L98.7294278,6.99451199 Z M101.934787,12.6197183 L101.934787,6.24166483 L102.844124,6.24166483 L102.844124,8.80049928 L102.865272,8.80049928 C103.140188,8.25912605 103.61389,7.97575099 104.315983,7.97575099 C105.326828,7.97575099 105.931644,8.64823806 105.931644,9.68446028 L105.931644,12.6197183 L105.013847,12.6197183 L105.013847,9.86209837 C105.013847,9.17692287 104.671259,8.76243398 103.998772,8.76243398 C103.28399,8.76243398 102.852583,9.25305348 102.852583,9.98898272 L102.852583,12.6197183 L101.934787,12.6197183 Z M109.361165,8.71590972 C108.701366,8.71590972 108.223435,9.19807026 108.172681,9.90439316 L110.503124,9.90439316 C110.481977,9.1896113 110.029422,8.71590972 109.361165,8.71590972 Z M110.498894,11.2747442 L111.374397,11.2747442 C111.243283,12.0994925 110.435452,12.6747015 109.40346,12.6747015 C108.071174,12.6747015 107.242196,11.7780521 107.242196,10.3400294 C107.242196,8.90200677 108.079633,7.96729203 109.365394,7.96729203 C110.625779,7.96729203 111.420921,8.84279407 111.420921,10.2342925 L111.420921,10.5557328 L108.168452,10.5557328 L108.168452,10.6107161 C108.168452,11.405858 108.66753,11.9303133 109.420377,11.9303133 C109.953292,11.9303133 110.37201,11.6765446 110.498894,11.2747442 Z" id="Download-on-the" fill="#FFFFFF"></path>
                <path d="M45.773912,30 L44.6945491,26.8109733 L40.1972037,26.8109733 L39.1178408,30 L37.2126018,30 L41.4728144,18.2006011 L43.4516464,18.2006011 L47.711859,30 L45.773912,30 Z M42.4213455,20.1630791 L40.6632923,25.3391148 L44.2284606,25.3391148 L42.4704074,20.1630791 L42.4213455,20.1630791 Z M53.6112222,21.0298402 C55.8762489,21.0298402 57.3644614,22.8042474 57.3644614,25.5598935 C57.3644614,28.3073627 55.8844259,30.0899469 53.6521072,30.0899469 C52.3764965,30.0899469 51.3707265,29.5257345 50.8392221,28.5444955 L50.8065141,28.5444955 L50.8065141,32.943717 L49.0321069,32.943717 L49.0321069,21.1197871 L50.7410982,21.1197871 L50.7410982,22.5916456 L50.7819831,22.5916456 C51.2807796,21.6349376 52.3764965,21.0298402 53.6112222,21.0298402 Z M53.1614877,28.5853804 C54.6006382,28.5853804 55.5491692,27.3997167 55.5491692,25.5598935 C55.5491692,23.7282474 54.6006382,22.5344066 53.1614877,22.5344066 C51.7550451,22.5344066 50.7983371,23.7527784 50.7901601,25.5598935 C50.7983371,27.3751857 51.7468681,28.5853804 53.1614877,28.5853804 Z M63.5581963,21.0298402 C65.8232229,21.0298402 67.3114354,22.8042474 67.3114354,25.5598935 C67.3114354,28.3073627 65.8313999,30.0899469 63.5990812,30.0899469 C62.3234705,30.0899469 61.3177005,29.5257345 60.7861961,28.5444955 L60.7534881,28.5444955 L60.7534881,32.943717 L58.9790809,32.943717 L58.9790809,21.1197871 L60.6880722,21.1197871 L60.6880722,22.5916456 L60.7289571,22.5916456 C61.2277536,21.6349376 62.3234705,21.0298402 63.5581963,21.0298402 Z M63.1084617,28.5853804 C64.5476122,28.5853804 65.4961433,27.3997167 65.4961433,25.5598935 C65.4961433,23.7282474 64.5476122,22.5344066 63.1084617,22.5344066 C61.7020192,22.5344066 60.7453111,23.7527784 60.7371341,25.5598935 C60.7453111,27.3751857 61.6938422,28.5853804 63.1084617,28.5853804 Z M72.6421614,26.7128494 L74.4492765,26.7128494 C74.5801084,27.8821592 75.7167102,28.6507964 77.2703386,28.6507964 C78.7585511,28.6507964 79.829737,27.8821592 79.829737,26.8273272 C79.829737,25.9115042 79.1837547,25.3636457 77.6546573,24.9875041 L76.1255598,24.6195395 C73.958657,24.096212 72.9528871,23.0822651 72.9528871,21.4386898 C72.9528871,19.4026188 74.7272942,18.0043533 77.2458077,18.0043533 C79.7397901,18.0043533 81.4487814,19.4026188 81.5060203,21.4386898 L79.7234361,21.4386898 C79.6171352,20.261203 78.6440732,19.5498047 77.2212767,19.5498047 C75.7984802,19.5498047 74.8254181,20.26938 74.8254181,21.3160349 C74.8254181,22.150088 75.4468695,22.6407075 76.96779,23.0168491 L78.2679316,23.3357518 C80.6883211,23.9081412 81.6940911,24.8812032 81.6940911,26.6065485 C81.6940911,28.8143362 79.9360379,30.1962478 77.1395068,30.1962478 C74.5228695,30.1962478 72.7566393,28.8470442 72.6421614,26.7128494 Z M83.8892771,19.1246011 L85.6555073,19.1246011 L85.6555073,21.1197871 L87.3563215,21.1197871 L87.3563215,22.5180527 L85.6555073,22.5180527 L85.6555073,27.4814866 C85.6555073,28.2501238 85.9989409,28.6099114 86.7430472,28.6099114 C86.931118,28.6099114 87.2336667,28.5853804 87.3481445,28.5690265 L87.3481445,29.967292 C87.1518967,30.016354 86.7348702,30.0572389 86.3505516,30.0572389 C84.5761444,30.0572389 83.8892771,29.3785486 83.8892771,27.6613804 L83.8892771,22.5180527 L82.6627283,22.5180527 L82.6627283,21.1197871 L83.8892771,21.1197871 L83.8892771,19.1246011 Z M92.6505873,30.1063009 C90.083012,30.1063009 88.4476136,28.3564247 88.4476136,25.5598935 C88.4476136,22.7715394 90.0911889,21.0053092 92.6505873,21.0053092 C95.2099857,21.0053092 96.845384,22.7633624 96.845384,25.5598935 C96.845384,28.3564247 95.2181627,30.1063009 92.6505873,30.1063009 Z M92.6505873,28.6344424 C94.1551538,28.6344424 95.0464459,27.4978406 95.0464459,25.5598935 C95.0464459,23.6219465 94.1551538,22.4771677 92.6505873,22.4771677 C91.1460209,22.4771677 90.2465518,23.6301235 90.2465518,25.5598935 C90.2465518,27.4978406 91.1460209,28.6344424 92.6505873,28.6344424 Z M98.4681806,30 L98.4681806,21.1197871 L100.160818,21.1197871 L100.160818,22.6161766 L100.193526,22.6161766 C100.471544,21.6267606 101.289243,21.0298402 102.335898,21.0298402 C102.597561,21.0298402 102.81834,21.0543711 102.957349,21.0870791 L102.957349,22.7470084 C102.810163,22.6897695 102.499437,22.6407075 102.147827,22.6407075 C100.978517,22.6407075 100.242588,23.4502297 100.242588,24.7013094 L100.242588,30 L98.4681806,30 Z M107.989951,22.4526367 C106.71434,22.4526367 105.79034,23.3848138 105.692216,24.7503714 L110.197739,24.7503714 C110.156854,23.3684598 109.281916,22.4526367 107.989951,22.4526367 Z M110.189562,27.3997167 L111.882199,27.3997167 C111.628712,28.99423 110.066907,30.1063009 108.071721,30.1063009 C105.495969,30.1063009 103.893278,28.3727787 103.893278,25.5926015 C103.893278,22.8124244 105.512323,21.0053092 107.998128,21.0053092 C110.434872,21.0053092 111.972146,22.6979465 111.972146,25.3881767 L111.972146,26.0096281 L105.684039,26.0096281 L105.684039,26.115929 C105.684039,27.6532034 106.648924,28.6671504 108.104429,28.6671504 C109.13473,28.6671504 109.944252,28.1765309 110.189562,27.3997167 Z" id="App-Store" fill="#FFFFFF"></path>
                <path d="M27.8102551,26.5477213 C26.7969455,28.0229843 25.74877,29.4891729 24.0938521,29.519905 C22.4651448,29.5506372 21.9430075,28.5594656 20.0845013,28.5594656 C18.2240444,28.5594656 17.6420498,29.4891729 16.1042745,29.5506372 C14.5066174,29.6101655 13.2917797,27.9572853 12.2701194,26.4886769 C10.1828992,23.485882 8.58985033,17.9982616 10.732332,14.2948952 C11.7932836,12.4557226 13.694385,11.292064 15.7545169,11.261344 C17.3235009,11.2325961 18.8056734,12.3144516 19.7640019,12.3144516 C20.7237933,12.3144516 22.5228078,11.0155595 24.4141077,11.2060745 C25.2057862,11.2386336 27.4277039,11.5236681 28.8546515,13.6024423 C28.7418854,13.6762357 26.2025161,15.1470704 26.2334811,18.2113296 C26.2645679,21.8717194 29.4552983,23.0884212 29.4923587,23.1049972 C29.4634662,23.1910229 28.9822905,24.8419673 27.8102551,26.5477213 Z M20.8617945,7.18506621 C21.7377124,6.16319882 23.2176905,5.40313526 24.4390991,5.35206428 C24.5951429,6.77148923 24.0215599,8.19287426 23.1744127,9.21710101 C22.3255587,10.2394887 20.9360372,11.0359105 19.5723606,10.9295701 C19.3870585,9.54086516 20.0743828,8.09255928 20.8617945,7.18506621 Z" id="logo" fill="#FFFFFF" fill-rule="nonzero"></path>
            </g>
        </g>
    </g>
</svg>