<?xml version="1.0" encoding="UTF-8"?>
<svg width="52px" height="25px" viewBox="0 0 52 25" version="1.1" xmlns="http://www.w3.org/2000/svg" xmlns:xlink="http://www.w3.org/1999/xlink">
    <!-- Generator: Sketch 52 (66869) - http://www.bohemiancoding.com/sketch -->
    <title>Logo</title>
    <desc>Created with Sketch.</desc>
    <g id="Components---1440px" stroke="none" stroke-width="1" fill="none" fill-rule="evenodd">
        <g id="Center" transform="translate(-724.000000, -4734.000000)" fill="#000000" fill-rule="nonzero">
            <g id="Contents-6" transform="translate(0.000000, 4418.000000)">
                <g id="Content" transform="translate(450.000000, 60.000000)">
                    <g id="Logos" transform="translate(70.000000, 244.000000)">
                        <path d="M217.787325,22.3166849 C217.814182,25.1019493 220.34347,26.0285523 220.371511,26.0406317 C220.350184,26.106094 219.967473,27.3615671 219.038936,28.6579541 C218.235993,29.7789958 217.403035,30.8957512 216.090601,30.9191306 C214.801076,30.9417307 214.386768,30.1885247 212.912404,30.1885247 C211.439224,30.1885247 210.977918,30.8961409 209.757509,30.9417307 C208.49089,30.9877101 207.526017,29.7298991 206.71715,28.612754 C205.063477,26.3281982 203.799623,22.1569258 205.496742,19.3412682 C206.339574,17.9431808 207.84672,17.0578813 209.481831,17.0345019 C210.725147,17.0122915 211.898951,17.8344666 212.659633,17.8344666 C213.419525,17.8344666 214.8461,16.8455185 216.346137,16.9908604 C216.974114,17.0157984 218.7364,17.2332267 219.867945,18.8164009 C219.77592,18.8697838 217.764023,19.9892669 217.786535,22.3170746 L217.787325,22.3166849 Z M215.363491,15.4789933 C216.036098,14.701239 216.48911,13.6183837 216.365095,12.5409836 C215.395482,12.5783906 214.223257,13.1581994 213.528138,13.9359537 C212.9049,14.624087 212.359073,15.7260355 212.506786,16.7820045 C213.587381,16.8618841 214.690883,16.2571373 215.363491,15.4789933 Z M225.09635,14.1471475 C225.643918,14.0575216 226.193907,13.9829385 226.745679,13.9234847 C227.404731,13.8542653 228.067161,13.8210937 228.72993,13.8241223 C229.760761,13.8241223 230.649408,13.9441365 231.396661,14.1841649 C232.143915,14.4238036 232.758069,14.767091 233.238728,15.2144166 C233.654812,15.6166289 233.983628,16.098133 234.205182,16.6296489 C234.436625,17.1759472 234.552741,17.8052424 234.552741,18.5167551 C234.552741,19.3771166 234.393575,20.1299328 234.076032,20.7759833 C233.770416,21.4067525 233.325951,21.96227 232.775052,22.4020197 C232.224881,22.8407728 231.572416,23.1676946 230.816079,23.382785 C230.060531,23.5978753 229.236261,23.7054205 228.342875,23.7054205 C227.535588,23.7054205 226.857846,23.6477514 226.30807,23.5320234 L226.30807,30.6829988 L225.09635,30.6829988 L225.09635,14.1471475 Z M226.30807,22.4904717 C226.600336,22.5722995 226.926173,22.630748 227.287557,22.6634792 C227.647755,22.6965999 228.03402,22.7129655 228.446353,22.7129655 C229.992204,22.7129655 231.190495,22.365392 232.040437,21.6702448 C232.890774,20.9754874 233.316139,19.9577047 233.316139,18.6168968 C233.316139,17.971236 233.203972,17.4089618 232.980428,16.9281257 C232.768591,16.4621121 232.440921,16.0564106 232.027798,15.7486356 C231.615861,15.4423656 231.126118,15.2109097 230.559358,15.0534885 C229.992599,14.8956776 229.365411,14.816967 228.678191,14.816967 C228.129204,14.816967 227.656444,14.8376188 227.261095,14.879312 C226.86614,14.920226 226.548202,14.9658158 226.30807,15.0156918 L226.30807,22.4904717 Z M244.184493,27.8537032 C244.184493,28.33376 244.193182,28.8138167 244.210165,29.2938735 C244.227543,29.7739303 244.279282,30.2368421 244.364987,30.6849471 L243.231468,30.6849471 L243.050974,28.996176 L242.99963,28.996176 C242.827855,29.2480801 242.629247,29.4811229 242.407198,29.6913231 C242.153293,29.9329783 241.872392,30.1454034 241.569895,30.3245148 C241.252352,30.5154465 240.891363,30.6685815 240.48772,30.7843095 C240.083682,30.9000374 239.641333,30.9577066 239.160674,30.9577066 C238.559553,30.9577066 238.031104,30.8626304 237.575722,30.6724781 C237.12034,30.4823257 236.746318,30.2341145 236.454842,29.9274549 C236.164696,29.6241697 235.941098,29.2650839 235.798032,28.8726549 C235.654951,28.4909083 235.581022,28.0873137 235.579623,27.6803061 C235.579623,26.2736463 236.193777,25.189622 237.422085,24.4278436 C238.650393,23.6664549 240.501149,23.3017364 242.975143,23.3356365 L242.975143,23.013001 C242.971253,22.6511414 242.940894,22.2900307 242.884303,21.9324836 C242.823996,21.5268096 242.688791,21.1354863 242.485399,20.7779315 C242.279233,20.4136027 241.970379,20.1077224 241.558046,19.8591216 C241.145714,19.6109104 240.587249,19.48661 239.88265,19.48661 C239.350647,19.48661 238.822593,19.5653206 238.298883,19.7223522 C237.792224,19.8716873 237.310516,20.0935567 236.869149,20.3808716 L236.482093,19.5111584 C237.03108,19.1476089 237.598629,18.8869287 238.182372,18.7295075 C238.778484,18.5705313 239.393507,18.4911134 240.01101,18.4933757 C240.870431,18.4933757 241.57108,18.633652 242.112167,18.9153737 C242.653255,19.1959263 243.077831,19.5606448 243.38708,20.0071911 C243.699088,20.4602828 243.914116,20.9714151 244.019007,21.5093167 C244.130384,22.0641875 244.186072,22.6143824 244.186072,23.1606808 L244.185283,27.8537032 L244.184493,27.8537032 Z M242.973563,24.3031535 C242.289801,24.2874213 241.605698,24.3121439 240.924935,24.3771883 C240.212437,24.4434299 239.555233,24.5887717 238.954112,24.8120449 C238.352992,25.0357077 237.85456,25.3626295 237.459605,25.7928102 C237.064651,26.2237702 236.867174,26.7942273 236.867174,27.5065193 C236.867174,28.3505152 237.115995,28.9716276 237.613638,29.3690772 C238.11128,29.7665268 238.669745,29.9652516 239.288244,29.9652516 C239.786676,29.9652516 240.232975,29.89901 240.627929,29.7665268 C241.022883,29.6340436 241.366494,29.4555809 241.65876,29.2326974 C241.941292,29.0188182 242.188794,28.7633332 242.392585,28.4752053 C242.583001,28.2075108 242.734922,27.9150882 242.844018,27.6062714 C242.930118,27.2750634 242.972773,27.0342557 242.973168,26.8854069 L242.973168,24.3035432 L242.973563,24.3031535 Z M246.553429,18.7653559 L249.696475,26.5128953 C249.86828,26.9430761 250.032186,27.3857258 250.186219,27.8408445 C250.341041,28.2959633 250.478485,28.713675 250.598156,29.0955384 L250.6495,29.0955384 C250.769961,28.7308199 250.907405,28.321291 251.061832,27.8661722 C251.215865,27.4110535 251.38767,26.9426864 251.576458,26.4626296 L254.514128,18.7653559 L255.802469,18.7653559 L252.221418,27.5065193 C251.893437,28.3509352 251.55401,29.1909799 251.203226,30.0264276 C250.913976,30.7198768 250.591595,31.3994199 250.237168,32.0627723 C249.91133,32.6667398 249.580754,33.2005692 249.245832,33.6642604 C248.923966,34.1136437 248.547241,34.5222198 248.124162,34.8807678 C247.643503,35.294583 247.201154,35.5965667 246.797116,35.7871088 C246.394262,35.9780404 246.123323,36.0980546 245.985879,36.147541 L245.573152,35.1792447 C245.882796,35.0467615 246.226407,34.8729747 246.603983,34.6578843 C246.982349,34.442794 247.351631,34.161462 247.712225,33.8138884 C248.021474,33.5158012 248.36074,33.1226379 248.730022,32.6343983 C249.099304,32.1457691 249.429881,31.553881 249.722147,30.8583442 C249.824835,30.5933778 249.876969,30.4199807 249.876969,30.3369838 C249.876969,30.2212559 249.825625,30.0474691 249.722147,29.8156235 L245.265088,18.7649663 L246.554219,18.7649663 L246.553429,18.7653559 Z" id="Logo"></path>
                    </g>
                </g>
            </g>
        </g>
    </g>
</svg>