<?xml version="1.0" encoding="UTF-8"?>
<svg width="123px" height="38px" viewBox="0 0 123 38" version="1.1" xmlns="http://www.w3.org/2000/svg" xmlns:xlink="http://www.w3.org/1999/xlink">
    <!-- Generator: Sketch 52 (66869) - http://www.bohemiancoding.com/sketch -->
    <title>Buttons / Google Play</title>
    <desc>Created with Sketch.</desc>
    <defs>
        <linearGradient x1="29.5315068%" y1="-6.0957265%" x2="55.0940639%" y2="92.1559829%" id="linearGradient-1">
            <stop stop-color="#006884" offset="0%"></stop>
            <stop stop-color="#8AD1D0" offset="100%"></stop>
        </linearGradient>
        <linearGradient x1="-7.52792208%" y1="15.7589744%" x2="91.537013%" y2="86.2504274%" id="linearGradient-2">
            <stop stop-color="#24BBB6" offset="0%"></stop>
            <stop stop-color="#DBE692" offset="100%"></stop>
        </linearGradient>
        <linearGradient x1="49.9404255%" y1="105.754795%" x2="49.9404255%" y2="-3.12739726%" id="linearGradient-3">
            <stop stop-color="#FCC072" offset="0%"></stop>
            <stop stop-color="#F58A5B" offset="100%"></stop>
        </linearGradient>
        <linearGradient x1="11.1493421%" y1="117.837069%" x2="90.4368421%" y2="12.1025862%" id="linearGradient-4">
            <stop stop-color="#712B8F" offset="0%"></stop>
            <stop stop-color="#EA1D27" offset="100%"></stop>
        </linearGradient>
    </defs>
    <g id="Symbols" stroke="none" stroke-width="1" fill="none" fill-rule="evenodd">
        <g id="Badges-&amp;-Logos-/-Google-Play">
            <g id="Buttons-/-Google-Play">
                <path d="M119,38 L4,38 C1.7296875,38 -5.32907052e-15,36.29 -5.32907052e-15,34 L-5.32907052e-15,4 C-5.32907052e-15,1.71 1.7296875,-2.21489493e-14 4,-2.21489493e-14 L119,-2.21489493e-14 C121.270312,-2.21489493e-14 123,1.71 123,4 L123,34 C123,36.29 121.270312,38 119,38 Z" id="Shape" fill="#000000" fill-rule="nonzero"></path>
                <path d="M9.82093023,19.1195122 L9.82093023,9.13170732 C9.82093023,8.56097561 10.2976744,8.08536585 10.7744186,8.08536585 C11.2511628,8.08536585 11.4418605,8.1804878 11.727907,8.37073171 L30.1302326,18.4536585 C30.5116279,18.6439024 30.7023256,18.9292683 30.7023256,19.2146341 C30.7023256,19.5 30.5116279,19.7853659 30.1302326,19.9756098 L11.727907,30.0585366 C11.5372093,30.1536585 11.2511628,30.3439024 10.7744186,30.3439024 C10.2976744,30.3439024 9.82093023,29.8682927 9.82093023,29.297561 L9.82093023,19.1195122 Z" id="Shape" fill="url(#linearGradient-1)"></path>
                <path d="M21.7395349,19.2146341 L10.5837209,8.08536585 C10.6790698,8.08536585 10.6790698,8.08536585 10.7744186,8.08536585 C11.2511628,8.08536585 11.4418605,8.1804878 11.727907,8.37073171 L25.2674419,15.7902439 L21.7395349,19.2146341 Z" id="Shape" fill="url(#linearGradient-2)"></path>
                <path d="M25.172093,22.5439024 L21.7395349,19.1195122 L25.2674419,15.6 L30.1302326,18.2634146 C30.5116279,18.4536585 30.7023256,18.7390244 30.7023256,19.0243902 C30.7023256,19.3097561 30.5116279,19.595122 30.1302326,19.7853659 L25.172093,22.5439024 Z" id="Shape" fill="url(#linearGradient-3)"></path>
                <path d="M10.6790698,30.1536585 L21.7395349,19.1195122 L25.172093,22.5439024 L11.727907,29.8682927 C11.4418605,30.0585366 11.2511628,30.1536585 10.6790698,30.1536585 C10.7744186,30.1536585 10.7744186,30.1536585 10.6790698,30.1536585 Z" id="Shape" fill="url(#linearGradient-4)"></path>
                <path d="M68.2697674,32.7219512 C67.7930233,32.3414634 67.4116279,31.6756098 67.2209302,31.295122 L68.7465116,30.6292683 C68.8418605,30.8195122 69.0325581,31.104878 69.2232558,31.3902439 C69.6046512,31.7707317 70.1767442,32.1512195 70.7488372,32.1512195 C71.3209302,32.1512195 71.9883721,31.8658537 72.3697674,31.3902439 C72.655814,30.9146341 72.8465116,30.4390244 72.8465116,29.7731707 L72.8465116,29.202439 C71.7023256,30.6292683 69.3186047,30.4390244 67.9837209,28.9170732 C66.5534884,27.395122 66.5534884,24.8268293 67.9837209,23.304878 C69.4139535,21.8780488 71.5116279,21.6878049 72.7511628,23.0195122 C72.7511628,23.0195122 72.7511628,23.0195122 72.7511628,23.0195122 L72.7511628,22.3536585 L74.372093,22.3536585 L74.372093,29.4878049 C74.372093,31.295122 73.7046512,32.3414634 72.8465116,33.0073171 C72.2744186,33.4829268 71.4162791,33.6731707 70.6534884,33.6731707 C69.7953488,33.5780488 68.9372093,33.2926829 68.2697674,32.7219512 Z M108.22093,33.102439 L109.84186,29.297561 L106.981395,22.7341463 L108.602326,22.7341463 L110.604651,27.395122 L112.606977,22.7341463 L114.227907,22.7341463 L109.84186,33.102439 L108.22093,33.102439 Z M100.497674,29.4878049 C100.02093,29.0121951 99.8302326,28.3463415 99.8302326,27.6804878 C99.8302326,27.1097561 100.02093,26.5390244 100.402326,26.1585366 C101.069767,25.4926829 102.023256,25.2073171 103.072093,25.2073171 C103.739535,25.2073171 104.311628,25.302439 104.788372,25.5878049 C104.788372,24.4463415 103.834884,23.9707317 103.072093,23.9707317 C102.404651,23.9707317 101.737209,24.3512195 101.451163,25.0170732 L100.02093,24.4463415 C100.306977,23.7804878 101.069767,22.5439024 102.976744,22.5439024 C103.930233,22.5439024 104.883721,22.8292683 105.455814,23.495122 C106.027907,24.1609756 106.218605,24.9219512 106.218605,25.9682927 L106.218605,29.9634146 L104.597674,29.9634146 L104.597674,29.297561 C104.406977,29.5829268 104.025581,29.7731707 103.739535,29.9634146 C103.35814,30.1536585 102.881395,30.2487805 102.404651,30.2487805 C101.832558,30.1536585 100.974419,29.9634146 100.497674,29.4878049 Z M49.6767442,26.0634146 C49.6767442,24.1609756 51.1069767,22.0682927 53.6813953,22.0682927 C56.1604651,22.0682927 57.6860465,24.1609756 57.6860465,26.0634146 C57.6860465,27.9658537 56.255814,30.0585366 53.6813953,30.0585366 C51.1069767,30.0585366 49.6767442,27.9658537 49.6767442,26.0634146 Z M58.2581395,26.0634146 C58.2581395,24.1609756 59.6883721,22.0682927 62.2627907,22.0682927 C64.7418605,22.0682927 66.2674419,24.1609756 66.2674419,26.0634146 C66.2674419,27.9658537 64.8372093,30.0585366 62.2627907,30.0585366 C59.7837209,30.0585366 58.2581395,27.9658537 58.2581395,26.0634146 Z M38.9023256,28.1560976 C36.5186047,25.7780488 36.6139535,21.8780488 38.9976744,19.404878 C40.2372093,18.1682927 41.7627907,17.597561 43.3837209,17.597561 C44.9093023,17.597561 46.4348837,18.1682927 47.5790698,19.3097561 L46.4348837,20.5463415 C44.7186047,18.8341463 41.9534884,18.9292683 40.3325581,20.6414634 C38.6162791,22.4487805 38.6162791,25.2073171 40.3325581,27.0146341 C42.0488372,28.8219512 44.9093023,28.9170732 46.6255814,27.1097561 C47.1976744,26.5390244 47.3883721,25.7780488 47.4837209,25.0170732 L43.4790698,25.0170732 L43.4790698,23.304878 L49.1046512,23.304878 C49.2,23.6853659 49.2,24.1609756 49.2,24.6365854 C49.2,26.0634146 48.627907,27.4902439 47.6744186,28.4414634 C46.6255814,29.4878049 45.1,30.0585366 43.5744186,30.0585366 C41.8581395,29.9634146 40.1418605,29.3926829 38.9023256,28.1560976 Z M79.2348837,28.8219512 C77.8046512,27.3 77.8046512,24.7317073 79.2348837,23.1146341 C80.6651163,21.5926829 83.0488372,21.5926829 84.3837209,23.1146341 C84.8604651,23.5902439 85.1465116,24.2560976 85.4325581,24.9219512 L80.1883721,27.1097561 C80.4744186,27.7756098 81.1418605,28.3463415 82.0953488,28.3463415 C82.9534884,28.3463415 83.5255814,28.0609756 84.0976744,27.204878 L85.527907,28.1560976 C85.3372093,28.3463415 85.1465116,28.5365854 85.0511628,28.7268293 C83.4302326,30.3439024 80.6651163,30.3439024 79.2348837,28.8219512 Z M89.1511628,29.9634146 L89.1511628,19.404878 L92.5837209,19.404878 C94.5860465,19.404878 96.2069767,20.8317073 96.2069767,22.5439024 C96.2069767,24.2560976 94.7767442,25.6829268 92.9651163,25.6829268 L90.8674419,25.6829268 L90.8674419,29.8682927 L89.1511628,29.8682927 L89.1511628,29.9634146 Z M97.1604651,29.9634146 L97.1604651,19.404878 L98.7813953,19.404878 L98.7813953,29.9634146 L97.1604651,29.9634146 Z M75.6116279,29.7731707 L75.6116279,17.9780488 L77.327907,17.9780488 L77.327907,29.7731707 L75.6116279,29.7731707 Z M104.693023,26.8243902 C104.311628,26.5390244 103.739535,26.4439024 103.167442,26.4439024 C102.023256,26.4439024 101.355814,27.0146341 101.355814,27.6804878 C101.355814,28.3463415 102.023256,28.7268293 102.690698,28.7268293 C103.644186,28.7268293 104.693023,27.9658537 104.693023,26.8243902 Z M55.8744186,26.0634146 C55.8744186,24.9219512 55.1116279,23.6853659 53.6813953,23.6853659 C52.2511628,23.6853659 51.4883721,24.9219512 51.4883721,26.0634146 C51.4883721,27.204878 52.2511628,28.4414634 53.6813953,28.4414634 C55.0162791,28.4414634 55.8744186,27.204878 55.8744186,26.0634146 Z M64.455814,26.0634146 C64.455814,24.9219512 63.6930233,23.6853659 62.2627907,23.6853659 C60.8325581,23.6853659 60.0697674,24.9219512 60.0697674,26.0634146 C60.0697674,27.204878 60.8325581,28.4414634 62.2627907,28.4414634 C63.6930233,28.4414634 64.455814,27.204878 64.455814,26.0634146 Z M72.9418605,26.7292683 C72.9418605,26.6341463 72.9418605,26.5390244 73.0372093,26.4439024 C73.0372093,26.4439024 73.0372093,26.4439024 73.0372093,26.4439024 C73.0372093,26.3487805 73.0372093,26.1585366 73.0372093,26.0634146 C73.0372093,25.9682927 73.0372093,25.7780488 73.0372093,25.6829268 C73.0372093,25.6829268 73.0372093,25.5878049 73.0372093,25.5878049 C73.0372093,25.4926829 72.9418605,25.302439 72.9418605,25.2073171 C72.655814,24.2560976 71.7976744,23.5902439 70.9395349,23.5902439 C69.7953488,23.5902439 68.8418605,24.7317073 68.8418605,25.9682927 C68.8418605,27.3 69.7953488,28.3463415 71.0348837,28.3463415 C71.7976744,28.4414634 72.5604651,27.7756098 72.9418605,26.7292683 Z M79.9023256,25.8731707 L83.4302326,24.3512195 C83.0488372,23.6853659 82.4767442,23.495122 82,23.495122 C80.5697674,23.5902439 79.7116279,25.1121951 79.9023256,25.8731707 Z M94.4906977,22.6390244 C94.4906977,21.6878049 93.727907,21.0219512 92.6790698,21.0219512 L90.772093,21.0219512 L90.772093,24.3512195 L92.7744186,24.3512195 C93.727907,24.3512195 94.4906977,23.5902439 94.4906977,22.6390244 Z" id="Shape" fill="#FFFFFF"></path>
                <polygon id="Shape" fill="#FFFFFF" points="109.460465 31.2 109.460465 31.2 109.365116 31.2 109.365116 31.2 109.365116 31.104878 109.365116 31.104878 109.460465 31.104878 109.460465 31.104878 109.365116 31.104878 109.365116 31.104878 109.365116 31.2 109.365116 31.2"></polygon>
                <path d="M109.460465,31.2 C109.460465,31.104878 109.460465,31.104878 109.460465,31.2 C109.460465,31.104878 109.460465,31.104878 109.460465,31.2 Z" id="Shape" fill="#FFFFFF"></path>
                <polygon id="Shape" fill="#FFFFFF" points="109.460465 31.2 109.460465 31.2 109.460465 31.104878 109.460465 31.104878 109.460465 31.104878 109.460465 31.104878 109.460465 31.104878 109.460465 31.104878 109.460465 31.104878 109.460465 31.104878 109.460465 31.2"></polygon>
                <polygon id="Shape" fill="#FFFFFF" points="109.460465 31.104878 109.460465 31.104878 109.460465 31.104878 109.460465 31.104878 109.460465 31.2 109.460465 31.2 109.460465 31.104878"></polygon>
                <polygon id="Shape" fill="#FFFFFF" points="109.460465 31.2 109.460465 31.2 109.460465 31.104878 109.460465 31.104878 109.460465 31.104878 109.460465 31.104878 109.460465 31.104878 109.460465 31.104878 109.460465 31.104878 109.460465 31.104878 109.460465 31.2"></polygon>
                <path d="M109.460465,31.2 C109.460465,31.104878 109.460465,31.104878 109.460465,31.2 C109.460465,31.2 109.460465,31.2 109.460465,31.2 Z M109.460465,31.2 C109.460465,31.2 109.460465,31.2 109.460465,31.2 C109.460465,31.104878 109.460465,31.104878 109.460465,31.2 Z" id="Shape" fill="#FFFFFF"></path>
                <path d="M109.555814,31.2 C109.555814,31.104878 109.555814,31.104878 109.555814,31.2 C109.555814,31.104878 109.555814,31.104878 109.555814,31.2 C109.555814,31.104878 109.555814,31.104878 109.555814,31.2 C109.555814,31.2 109.555814,31.2 109.555814,31.2 Z M109.555814,31.2 C109.555814,31.2 109.555814,31.2 109.555814,31.2 C109.555814,31.104878 109.555814,31.104878 109.555814,31.2 Z" id="Shape" fill="#FFFFFF"></path>
                <polygon id="Shape" fill="#FFFFFF" points="109.555814 31.104878 109.555814 31.104878 109.555814 31.104878 109.555814 31.104878 109.555814 31.104878 109.555814 31.104878 109.555814 31.104878 109.555814 31.104878 109.555814 31.2 109.555814 31.2"></polygon>
                <polygon id="Shape" fill="#FFFFFF" points="109.555814 31.2 109.555814 31.2 109.555814 31.104878 109.555814 31.104878 109.555814 31.2"></polygon>
                <path d="M109.555814,31.2 C109.555814,31.104878 109.555814,31.104878 109.555814,31.2 C109.555814,31.104878 109.555814,31.104878 109.555814,31.2 C109.555814,31.2 109.555814,31.2 109.555814,31.2 C109.555814,31.2 109.555814,31.2 109.555814,31.2 Z M109.555814,31.104878 C109.555814,31.2 109.555814,31.2 109.555814,31.104878 C109.555814,31.2 109.555814,31.2 109.555814,31.104878 C109.555814,31.104878 109.555814,31.104878 109.555814,31.104878 C109.555814,31.104878 109.555814,31.104878 109.555814,31.104878 Z" id="Shape" fill="#FFFFFF"></path>
                <path d="M109.555814,31.2 C109.555814,31.2 109.555814,31.2 109.555814,31.2 C109.555814,31.2 109.555814,31.2 109.555814,31.2 C109.555814,31.104878 109.555814,31.104878 109.555814,31.2 C109.555814,31.104878 109.555814,31.104878 109.555814,31.2 C109.555814,31.104878 109.555814,31.104878 109.555814,31.2 C109.555814,31.104878 109.555814,31.104878 109.555814,31.2 C109.555814,31.2 109.555814,31.2 109.555814,31.2 C109.555814,31.2 109.555814,31.2 109.555814,31.2 Z" id="Shape" fill="#FFFFFF"></path>
                <path d="M109.651163,31.2 C109.651163,31.104878 109.651163,31.104878 109.651163,31.2 C109.555814,31.104878 109.555814,31.104878 109.651163,31.2 C109.555814,31.2 109.555814,31.2 109.651163,31.2 C109.651163,31.2 109.651163,31.2 109.651163,31.2 Z M109.651163,31.104878 C109.651163,31.2 109.651163,31.2 109.651163,31.104878 C109.651163,31.2 109.555814,31.2 109.651163,31.104878 C109.555814,31.104878 109.651163,31.104878 109.651163,31.104878 C109.651163,31.104878 109.651163,31.104878 109.651163,31.104878 Z" id="Shape" fill="#FFFFFF"></path>
                <polygon id="Shape" fill="#FFFFFF" points="109.651163 31.2 109.651163 31.104878 109.651163 31.104878 109.651163 31.104878 109.651163 31.104878 109.651163 31.104878 109.651163 31.2 109.651163 31.2 109.651163 31.104878 109.651163 31.104878 109.651163 31.2 109.651163 31.2 109.651163 31.104878 109.651163 31.104878"></polygon>
                <path d="M109.651163,31.2 C109.651163,31.104878 109.651163,31.104878 109.651163,31.2 C109.651163,31.104878 109.651163,31.104878 109.651163,31.2 C109.651163,31.104878 109.651163,31.104878 109.651163,31.2 C109.651163,31.104878 109.651163,31.104878 109.651163,31.2 C109.651163,31.104878 109.651163,31.104878 109.651163,31.2 C109.651163,31.104878 109.651163,31.104878 109.651163,31.2 C109.651163,31.104878 109.651163,31.104878 109.651163,31.2 C109.651163,31.104878 109.651163,31.104878 109.651163,31.2 C109.651163,31.2 109.651163,31.2 109.651163,31.2 C109.651163,31.2 109.651163,31.2 109.651163,31.2 C109.651163,31.2 109.651163,31.2 109.651163,31.2 C109.651163,31.2 109.651163,31.2 109.651163,31.2 Z" id="Shape" fill="#FFFFFF"></path>
                <polygon id="Shape" fill="#FFFFFF" points="109.746512 31.104878 109.651163 31.104878 109.651163 31.104878 109.746512 31.104878 109.746512 31.2 109.746512 31.2 109.746512 31.104878"></polygon>
                <polygon id="Shape" fill="#FFFFFF" points="109.746512 31.2 109.746512 31.2 109.746512 31.104878 109.746512 31.104878 109.746512 31.104878 109.746512 31.104878 109.746512 31.104878 109.746512 31.104878 109.746512 31.104878 109.746512 31.104878 109.746512 31.2"></polygon>
                <path d="M109.746512,31.2 C109.746512,31.104878 109.746512,31.104878 109.746512,31.2 C109.746512,31.104878 109.746512,31.104878 109.746512,31.2 Z" id="Shape" fill="#FFFFFF"></path>
                <path d="M37.5674419,10.0829268 C37.5674419,8.37073171 38.8069767,7.32439024 40.3325581,7.32439024 C41.3813953,7.32439024 42.0488372,7.8 42.5255814,8.46585366 L41.7627907,8.94146341 C41.4767442,8.56097561 41,8.27560976 40.3325581,8.27560976 C39.2837209,8.27560976 38.5209302,9.03658537 38.5209302,10.1780488 C38.5209302,11.3195122 39.2837209,12.0804878 40.3325581,12.0804878 C40.9046512,12.0804878 41.3813953,11.795122 41.572093,11.604878 L41.572093,10.7487805 L40.0465116,10.7487805 L40.0465116,9.89268293 L42.6209302,9.89268293 L42.6209302,11.8902439 C42.144186,12.4609756 41.3813953,12.8414634 40.427907,12.8414634 C38.8069767,12.8414634 37.5674419,11.7 37.5674419,10.0829268 Z" id="Shape" fill="#FFFFFF" fill-rule="nonzero"></path>
                <polygon id="Shape" fill="#FFFFFF" fill-rule="nonzero" points="43.7651163 12.7463415 43.7651163 7.4195122 47.3883721 7.4195122 47.3883721 8.27560976 44.6232558 8.27560976 44.6232558 9.60731707 47.2930233 9.60731707 47.2930233 10.4634146 44.6232558 10.4634146 44.6232558 11.9853659 47.3883721 11.9853659 47.3883721 12.8414634"></polygon>
                <polygon id="Shape" fill="#FFFFFF" fill-rule="nonzero" points="50.0581395 12.7463415 50.0581395 8.27560976 48.4372093 8.27560976 48.4372093 7.4195122 52.6325581 7.4195122 52.6325581 8.27560976 51.0116279 8.27560976 51.0116279 12.7463415"></polygon>
                <path d="M55.8744186,12.7463415 L55.8744186,7.4195122 L56.827907,7.4195122 L56.827907,12.7463415 C56.827907,12.7463415 55.8744186,12.7463415 55.8744186,12.7463415 Z" id="Shape" fill="#FFFFFF" fill-rule="nonzero"></path>
                <polygon id="Shape" fill="#FFFFFF" fill-rule="nonzero" points="59.4023256 12.7463415 59.4023256 8.27560976 57.7813953 8.27560976 57.7813953 7.4195122 61.9767442 7.4195122 61.9767442 8.27560976 60.355814 8.27560976 60.355814 12.7463415"></polygon>
                <path d="M65.027907,10.0829268 C65.027907,8.46585366 66.172093,7.32439024 67.7930233,7.32439024 C69.4139535,7.32439024 70.5581395,8.46585366 70.5581395,10.0829268 C70.5581395,11.7 69.4139535,12.8414634 67.7930233,12.8414634 C66.172093,12.8414634 65.027907,11.604878 65.027907,10.0829268 Z M69.5093023,10.0829268 C69.5093023,8.94146341 68.8418605,8.1804878 67.6976744,8.1804878 C66.6488372,8.1804878 65.8860465,9.03658537 65.8860465,10.0829268 C65.8860465,11.2243902 66.5534884,11.9853659 67.6976744,11.9853659 C68.8418605,11.9853659 69.5093023,11.1292683 69.5093023,10.0829268 Z" id="Shape" fill="#FFFFFF" fill-rule="nonzero"></path>
                <polygon id="Shape" fill="#FFFFFF" fill-rule="nonzero" points="75.3255814 12.7463415 72.5604651 8.94146341 72.5604651 12.7463415 71.6069767 12.7463415 71.6069767 7.4195122 72.5604651 7.4195122 75.3255814 11.1292683 75.3255814 7.4195122 76.2790698 7.4195122 76.2790698 12.7463415"></polygon>
            </g>
        </g>
    </g>
</svg>