<?xml version="1.0" encoding="UTF-8"?>
<svg width="92px" height="23px" viewBox="0 0 92 23" version="1.1" xmlns="http://www.w3.org/2000/svg" xmlns:xlink="http://www.w3.org/1999/xlink">
    <!-- Generator: Sketch 52 (66869) - http://www.bohemiancoding.com/sketch -->
    <title>Logo</title>
    <desc>Created with Sketch.</desc>
    <g id="Components---1440px" stroke="none" stroke-width="1" fill="none" fill-rule="evenodd">
        <g id="Center" transform="translate(-520.000000, -4733.000000)" fill-rule="nonzero">
            <g id="Contents-6" transform="translate(0.000000, 4418.000000)">
                <g id="Content" transform="translate(450.000000, 60.000000)">
                    <g id="Logos" transform="translate(70.000000, 244.000000)">
                        <g id="Logo" transform="translate(0.000000, 11.065574)">
                            <path d="M34.2303704,4.97877049 L29.1644444,4.97877049 C28.8177778,4.97877049 28.522963,5.22959016 28.4688889,5.57040984 L26.42,18.507541 C26.3792593,18.7627869 26.5777778,18.9929508 26.8377778,18.9929508 L29.2562963,18.9929508 C29.602963,18.9929508 29.8977778,18.7421311 29.9518519,18.4005738 L30.5044444,14.9112295 C30.5577778,14.5696721 30.8533333,14.3188525 31.1992593,14.3188525 L32.802963,14.3188525 C36.14,14.3188525 38.0659259,12.7106557 38.5688889,9.52377049 C38.7955556,8.1295082 38.5785185,7.03401639 37.922963,6.26680328 C37.202963,5.42434426 35.9259259,4.97877049 34.2303704,4.97877049 Z M34.8148148,9.70377049 C34.5377778,11.5140984 33.1488889,11.5140984 31.8059259,11.5140984 L31.0414815,11.5140984 L31.5777778,8.13319672 C31.6096296,7.92885246 31.7874074,7.77836066 31.9948148,7.77836066 L32.3451852,7.77836066 C33.26,7.77836066 34.122963,7.77836066 34.5688889,8.29770492 C34.8348148,8.60754098 34.9162963,9.06786885 34.8148148,9.70377049 Z" id="Shape" fill="#000000"></path>
                            <path d="M49.3733333,9.6454918 L46.9474074,9.6454918 C46.7407407,9.6454918 46.5622222,9.79598361 46.5303704,10.0003279 L46.422963,10.6760656 L46.2533333,10.4311475 C45.7281481,9.67204918 44.557037,9.41827869 43.3881481,9.41827869 C40.7074074,9.41827869 38.4177778,11.4403279 37.9718519,14.2768033 C37.74,15.6917213 38.0696296,17.0446721 38.8755556,17.9881967 C39.6148148,18.8557377 40.6725926,19.2172131 41.9311111,19.2172131 C44.0911111,19.2172131 45.2888889,17.8340164 45.2888889,17.8340164 L45.1807407,18.5053279 C45.14,18.7620492 45.3385185,18.9922131 45.597037,18.9922131 L47.7822222,18.9922131 C48.1296296,18.9922131 48.422963,18.7413934 48.4777778,18.3998361 L49.7888889,10.1309016 C49.8303704,9.87639344 49.6325926,9.6454918 49.3733333,9.6454918 Z M45.9918519,14.347623 C45.7577778,15.7278689 44.6577778,16.6544262 43.2548148,16.6544262 C42.5503704,16.6544262 41.9874074,16.4294262 41.6259259,16.0030328 C41.2674074,15.5795902 41.1311111,14.9768852 41.2451852,14.3055738 C41.4637037,12.9371311 42.5822222,11.9803279 43.9637037,11.9803279 C44.6525926,11.9803279 45.2125926,12.2082787 45.5814815,12.6383607 C45.9511111,13.0728689 46.0977778,13.6792623 45.9918519,14.347623 Z" id="Shape" fill="#000000"></path>
                            <path d="M62.2933333,9.6454918 L59.8555556,9.6454918 C59.622963,9.6454918 59.4044444,9.76057377 59.2725926,9.95311475 L55.9103704,14.8854098 L54.4851852,10.1456557 C54.3955556,9.84909836 54.1207407,9.6454918 53.8096296,9.6454918 L51.4140741,9.6454918 C51.122963,9.6454918 50.9207407,9.92877049 51.0133333,10.2017213 L53.6985185,18.0494262 L51.1740741,21.5985246 C50.9755556,21.8781148 51.1755556,22.262459 51.5185185,22.262459 L53.9533333,22.262459 C54.1844444,22.262459 54.4007407,22.1503279 54.5318519,21.9614754 L62.64,10.3057377 C62.8340741,10.0268852 62.6348148,9.6454918 62.2933333,9.6454918 Z" id="Shape" fill="#000000"></path>
                            <path d="M70.3644444,4.97877049 L65.2977778,4.97877049 C64.9518519,4.97877049 64.657037,5.22959016 64.602963,5.57040984 L62.5540741,18.507541 C62.5133333,18.7627869 62.7118519,18.9929508 62.9703704,18.9929508 L65.5703704,18.9929508 C65.8118519,18.9929508 66.0185185,18.817377 66.0562963,18.5783607 L66.6377778,14.9112295 C66.6911111,14.5696721 66.9866667,14.3188525 67.3325926,14.3188525 L68.9355556,14.3188525 C72.2733333,14.3188525 74.1985185,12.7106557 74.7022222,9.52377049 C74.9296296,8.1295082 74.7111111,7.03401639 74.0555556,6.26680328 C73.3362963,5.42434426 72.06,4.97877049 70.3644444,4.97877049 Z M70.9488889,9.70377049 C70.6725926,11.5140984 69.2837037,11.5140984 67.94,11.5140984 L67.1762963,11.5140984 L67.7133333,8.13319672 C67.7451852,7.92885246 67.9214815,7.77836066 68.1296296,7.77836066 L68.48,7.77836066 C69.3940741,7.77836066 70.2577778,7.77836066 70.7037037,8.29770492 C70.9696296,8.60754098 71.0503704,9.06786885 70.9488889,9.70377049 Z" id="Shape" fill="#B7B7B7"></path>
                            <path d="M85.5066667,9.6454918 L83.0822222,9.6454918 C82.8740741,9.6454918 82.697037,9.79598361 82.6659259,10.0003279 L82.5585185,10.6760656 L82.3881481,10.4311475 C81.862963,9.67204918 80.6925926,9.41827869 79.5237037,9.41827869 C76.842963,9.41827869 74.5540741,11.4403279 74.1081481,14.2768033 C73.877037,15.6917213 74.2051852,17.0446721 75.0111111,17.9881967 C75.7518519,18.8557377 76.8081481,19.2172131 78.0666667,19.2172131 C80.2266667,19.2172131 81.4244444,17.8340164 81.4244444,17.8340164 L81.3162963,18.5053279 C81.2755556,18.7620492 81.4740741,18.9922131 81.7340741,18.9922131 L83.9185185,18.9922131 C84.2644444,18.9922131 84.5592593,18.7413934 84.6133333,18.3998361 L85.9251852,10.1309016 C85.9651852,9.87639344 85.7666667,9.6454918 85.5066667,9.6454918 Z M82.1251852,14.347623 C81.8925926,15.7278689 80.7911111,16.6544262 79.3881481,16.6544262 C78.6851852,16.6544262 78.1207407,16.4294262 77.7592593,16.0030328 C77.4007407,15.5795902 77.2659259,14.9768852 77.3785185,14.3055738 C77.5985185,12.9371311 78.7155556,11.9803279 80.097037,11.9803279 C80.7859259,11.9803279 81.3459259,12.2082787 81.7148148,12.6383607 C82.0859259,13.0728689 82.2325926,13.6792623 82.1251852,14.347623 Z" id="Shape" fill="#B7B7B7"></path>
                            <path d="M88.3666667,5.33360656 L86.2874074,18.507541 C86.2466667,18.7627869 86.4451852,18.9929508 86.7037037,18.9929508 L88.7940741,18.9929508 C89.1414815,18.9929508 89.4362963,18.7421311 89.4896296,18.4005738 L91.54,5.46418033 C91.5807407,5.20893443 91.3822222,4.97803279 91.1237037,4.97803279 L88.782963,4.97803279 C88.5762963,4.97877049 88.3985185,5.1292623 88.3666667,5.33360656 Z" id="Shape" fill="#B7B7B7"></path>
                            <path d="M5.38222222,21.5070492 L5.76962963,19.0563934 L4.90666667,19.0364754 L0.785925926,19.0364754 L3.64962963,0.953114754 C3.65851852,0.89852459 3.68740741,0.847622951 3.72962963,0.81147541 C3.77185185,0.775327869 3.82592593,0.755409836 3.88222222,0.755409836 L10.8303704,0.755409836 C13.137037,0.755409836 14.7288889,1.23344262 15.56,2.17696721 C15.9496296,2.61959016 16.1977778,3.08213115 16.3177778,3.59114754 C16.4437037,4.1252459 16.4459259,4.76336066 16.322963,5.54163934 L16.3140741,5.59844262 L16.3140741,6.09713115 L16.7037037,6.31696721 C17.0318519,6.49032787 17.2925926,6.68877049 17.4925926,6.91598361 C17.8259259,7.29442623 18.0414815,7.77540984 18.1325926,8.34565574 C18.2266667,8.93213115 18.1955556,9.63 18.0414815,10.420082 C17.8637037,11.3289344 17.5762963,12.1204918 17.1881481,12.7681967 C16.8311111,13.365 16.3762963,13.86 15.8362963,14.2436066 C15.3207407,14.6080328 14.7081481,14.8846721 14.0155556,15.0617213 C13.3444444,15.2358197 12.5792593,15.3236066 11.74,15.3236066 L11.1992593,15.3236066 C10.8125926,15.3236066 10.437037,15.4622951 10.1422222,15.7109016 C9.84666667,15.9646721 9.65111111,16.3113934 9.59111111,16.6905738 L9.55037037,16.9111475 L8.86592593,21.2304098 L8.83481481,21.3890164 C8.82666667,21.4391803 8.81259259,21.4642623 8.79185185,21.4812295 C8.77333333,21.4967213 8.74666667,21.5070492 8.72074074,21.5070492 L5.38222222,21.5070492 Z" id="Shape" fill="#253B80"></path>
                            <path d="M17.0725926,5.65598361 C17.0518519,5.78803279 17.0281481,5.92303279 17.0014815,6.06172131 C16.0851852,10.7468852 12.9503704,12.3654098 8.94666667,12.3654098 L6.90814815,12.3654098 C6.41851852,12.3654098 6.00592593,12.7195082 5.92962963,13.2004918 L4.88592593,19.792623 L4.59037037,21.6612295 C4.54074074,21.9769672 4.78518519,22.2617213 5.10518519,22.2617213 L8.72074074,22.2617213 C9.14888889,22.2617213 9.51259259,21.9518852 9.58,21.5313934 L9.61555556,21.3484426 L10.2962963,17.0461475 L10.34,16.810082 C10.4066667,16.3881148 10.7711111,16.0782787 11.1992593,16.0782787 L11.74,16.0782787 C15.242963,16.0782787 17.9851852,14.6618852 18.7866667,10.5631967 C19.1214815,8.85098361 18.9481481,7.42131148 18.0622222,6.41581967 C17.7940741,6.11262295 17.4614815,5.86106557 17.0725926,5.65598361 Z" id="Shape" fill="#B7B7B7"></path>
                            <path d="M16.1140741,5.27532787 C15.9740741,5.2347541 15.8296296,5.19786885 15.6814815,5.16467213 C15.5325926,5.13221311 15.38,5.10344262 15.222963,5.07836066 C14.6733333,4.98983607 14.0711111,4.94778689 13.4259259,4.94778689 L7.98,4.94778689 C7.84592593,4.94778689 7.71851852,4.97803279 7.60444444,5.03262295 C7.35333333,5.15286885 7.16666667,5.38967213 7.12148148,5.67959016 L5.96296296,12.9872951 L5.92962963,13.2004918 C6.00592593,12.7195082 6.41851852,12.3654098 6.90814815,12.3654098 L8.94666667,12.3654098 C12.9503704,12.3654098 16.0851852,10.7461475 17.0014815,6.06172131 C17.0288889,5.92303279 17.0518519,5.78803279 17.0725926,5.65598361 C16.8407407,5.53352459 16.5896296,5.42877049 16.3192593,5.3395082 C16.2525926,5.31737705 16.1837037,5.29598361 16.1140741,5.27532787 Z" id="Shape" fill="#4A4A4A"></path>
                            <path d="M7.12148148,5.67959016 C7.16666667,5.38967213 7.35333333,5.15286885 7.60444444,5.03336066 C7.71925926,4.97877049 7.84592593,4.94852459 7.98,4.94852459 L13.4259259,4.94852459 C14.0711111,4.94852459 14.6733333,4.99057377 15.222963,5.07909836 C15.38,5.10418033 15.5325926,5.13295082 15.6814815,5.16540984 C15.8296296,5.19860656 15.9740741,5.2354918 16.1140741,5.27606557 C16.1837037,5.29672131 16.2525926,5.31811475 16.32,5.3395082 C16.5903704,5.42877049 16.8414815,5.5342623 17.0733333,5.65598361 C17.3459259,3.92459016 17.0711111,2.7457377 16.1311111,1.67827869 C15.0948148,0.503114754 13.2244444,0 10.8311111,0 L3.88296296,0 C3.39407407,0 2.97703704,0.354098361 2.90148148,0.835819672 L0.00740740741,19.105082 C-0.0496296296,19.4665574 0.23037037,19.792623 0.596296296,19.792623 L4.88592593,19.792623 L5.96296296,12.9872951 L7.12148148,5.67959016 Z" id="Shape" fill="#000000"></path>
                        </g>
                    </g>
                </g>
            </g>
        </g>
    </g>
</svg>