<?xml version="1.0" encoding="UTF-8"?>
<svg width="110px" height="17px" viewBox="0 0 110 17" version="1.1" xmlns="http://www.w3.org/2000/svg" xmlns:xlink="http://www.w3.org/1999/xlink">
    <!-- Generator: Sketch 52 (66869) - http://www.bohemiancoding.com/sketch -->
    <title>Logo</title>
    <desc>Created with Sketch.</desc>
    <g id="Components---1440px" stroke="none" stroke-width="1" fill="none" fill-rule="evenodd">
        <g id="Center" transform="translate(-810.000000, -4740.000000)" fill="#000000" fill-rule="nonzero">
            <g id="Contents-6" transform="translate(0.000000, 4418.000000)">
                <g id="Content" transform="translate(450.000000, 60.000000)">
                    <g id="Logos" transform="translate(70.000000, 244.000000)">
                        <path d="M384.071116,18.7408681 L384.071116,19.6853112 C383.122679,18.8899907 381.931053,18.442623 380.690788,18.442623 C377.626606,18.442623 375.121759,21.176537 375.121759,24.5317952 C375.121759,27.8870534 377.602287,30.6209675 380.690788,30.6209675 C381.931053,30.6209675 383.122679,30.1735998 384.071116,29.3782793 L384.071116,30.4221374 L386.624602,30.4221374 L386.624602,18.7408681 L384.071116,18.7408681 Z M380.982615,28.3344212 C379.134378,28.3344212 377.626606,26.6443652 377.626606,24.5317952 C377.626606,22.4192253 379.134378,20.754023 380.982615,20.754023 C382.830852,20.754023 384.338624,22.444079 384.338624,24.556649 C384.338624,26.669219 382.830852,28.3344212 380.982615,28.3344212 Z M368.117914,18.442623 C366.87765,18.442623 365.661704,18.8899907 364.713267,19.7350187 L364.713267,18.7408681 L362.135463,18.7408681 L362.135463,34.6721311 L364.688948,34.6721311 L364.688948,29.3534256 C365.637385,30.1735998 366.853331,30.6209675 368.093595,30.6458213 C371.157777,30.6458213 373.662624,27.9119072 373.662624,24.556649 C373.662624,21.2013908 371.206415,18.442623 368.117914,18.442623 Z M367.826087,28.3344212 C365.97785,28.3344212 364.470078,26.6443652 364.470078,24.5317952 C364.470078,22.4192253 365.97785,20.7291693 367.826087,20.7291693 C369.674324,20.7291693 371.182096,22.4192253 371.182096,24.5317952 C371.182096,26.6443652 369.674324,28.3344212 367.826087,28.3344212 Z M397.495153,18.7408681 L394.2121,26.6940728 L390.710178,18.7408681 L388.181012,18.7408681 L392.996155,29.6765245 L390.929048,34.6721311 L393.433895,34.6721311 L400,18.7408681 L397.495153,18.7408681 Z M345.890433,20.3563628 L346.012028,28.0610298 L345.96339,28.0610298 L343.75037,20.3563628 L340.17549,20.3563628 L340.17549,30.0741847 L342.534424,30.0741847 L342.41283,22.0961263 L342.461468,22.0961263 L344.84472,30.0741847 L348.273686,30.0741847 L348.273686,20.3563628 L345.890433,20.3563628 Z M300.657268,20.3563628 L298.881988,30.1735998 L301.484111,30.1735998 L302.797331,21.2510983 L302.845969,21.2510983 L304.134871,30.1735998 L306.712675,30.1735998 L304.937395,20.3563628 L300.657268,20.3563628 Z M315.175655,20.3563628 L313.984028,27.8621997 L313.935391,27.8621997 L312.768083,20.3563628 L308.82842,20.3563628 L308.60955,30.1735998 L311.017122,30.1735998 L311.06576,21.3505134 L311.114397,21.3505134 L312.743764,30.1735998 L315.175655,30.1735998 L316.780703,21.3505134 L316.82934,21.3505134 L316.877978,30.1735998 L319.28555,30.1735998 L319.06668,20.3563628 L315.175655,20.3563628 Z M294.845049,27.3899782 C294.918006,27.6385158 294.918006,27.8870534 294.869368,28.1355911 C294.796411,28.45869 294.577541,28.781789 293.920931,28.781789 C293.312958,28.781789 292.948174,28.4338363 292.948174,27.8870534 L292.948174,26.9177566 L290.37037,26.9177566 L290.37037,27.6633696 C290.37037,29.8505008 292.048375,30.5215525 293.872293,30.5215525 C295.623254,30.5215525 297.033751,29.9250621 297.27694,28.2847137 C297.374215,27.7379309 297.374215,27.2160018 297.27694,26.669219 C296.863518,24.6063565 293.215682,24.0098662 292.948174,22.8417393 C292.923856,22.6677629 292.923856,22.4937866 292.948174,22.3198102 C293.021131,21.9967113 293.215682,21.6487586 293.823655,21.6487586 C294.285714,21.599051 294.674817,21.9470037 294.723455,22.3943715 C294.723455,22.444079 294.723455,22.4937866 294.723455,22.5434941 L294.723455,23.1399844 L297.131026,23.1399844 L297.131026,22.444079 C297.131026,20.3066553 295.258471,19.9587026 293.896612,19.9587026 C292.194288,19.9587026 290.783792,20.5303392 290.540603,22.1458339 C290.443327,22.5932016 290.443327,23.0405694 290.540603,23.4879371 C290.929705,25.5507996 294.334352,26.1224362 294.845049,27.3899782 Z M326.070525,27.3899782 C326.143482,27.613662 326.143482,27.8621997 326.094844,28.1107373 C326.021887,28.4338363 325.803017,28.7569352 325.170725,28.7569352 C324.587072,28.7569352 324.222288,28.4089825 324.222288,27.8870534 L324.222288,26.9426104 L321.668803,26.9426104 L321.668803,27.6882233 C321.668803,29.8505008 323.346807,30.4966987 325.122087,30.4966987 C326.84873,30.4966987 328.259226,29.9002084 328.478097,28.2847137 C328.575372,27.7627846 328.575372,27.2160018 328.478097,26.6940728 C328.064675,24.6809178 324.441158,24.0595737 324.197969,22.9163006 C324.17365,22.7423242 324.17365,22.5932016 324.197969,22.4192253 C324.270926,22.0961263 324.465477,21.7730274 325.07345,21.7730274 C325.51119,21.7233199 325.924611,22.0712726 325.94893,22.5186403 C325.94893,22.5683479 325.94893,22.5932016 325.94893,22.6429091 L325.94893,23.2393995 L328.307864,23.2393995 L328.307864,22.5434941 C328.307864,20.4309241 326.459627,20.0829714 325.097769,20.0829714 C323.395445,20.0829714 322.033586,20.654608 321.766078,22.2452489 C321.693122,22.6677629 321.693122,23.1151307 321.790397,23.5624984 C322.203819,25.5507996 325.584147,26.1224362 326.070525,27.3899782 Z M334.144402,28.6823739 C334.582142,28.7320814 334.971245,28.4089825 335.06852,27.9864685 C335.092839,27.8621997 335.092839,27.7379309 335.092839,27.613662 L335.092839,20.3563628 L337.52473,20.3563628 L337.52473,27.3899782 C337.52473,27.5639545 337.500411,27.936761 337.500411,28.036176 C337.330178,29.8753546 335.919682,30.471845 334.144402,30.471845 C332.369122,30.471845 330.958625,29.8753546 330.788393,28.036176 C330.788393,27.936761 330.764074,27.5639545 330.764074,27.3899782 L330.764074,20.3563628 L333.195964,20.3563628 L333.195964,27.613662 C333.195964,27.7379309 333.195964,27.8621997 333.220283,27.9864685 C333.317559,28.4338363 333.706661,28.7320814 334.144402,28.6823739 Z M354.183181,28.5829589 C354.888429,28.5829589 355.131618,28.1355911 355.155937,27.8870534 C355.180256,27.7627846 355.180256,27.6385158 355.180256,27.514247 L355.180256,26.0975824 L354.207499,26.0975824 L354.207499,24.6560641 L357.612146,24.6560641 L357.612146,27.2905631 C357.612146,27.4645395 357.612146,27.613662 357.587827,27.936761 C357.441914,29.726232 355.909823,30.3724299 354.207499,30.3724299 C352.505176,30.3724299 350.997404,29.726232 350.827171,27.936761 C350.802853,27.613662 350.802853,27.4645395 350.802853,27.2905631 L350.802853,23.1399844 C350.802853,22.9163006 350.827171,22.7174704 350.85149,22.4937866 C351.070361,20.654608 352.529495,20.0581176 354.231818,20.0581176 C355.934142,20.0581176 357.417595,20.6297542 357.612146,22.4937866 C357.636465,22.7174704 357.636465,22.9163006 357.636465,23.1399844 L357.636465,23.4630834 L355.204575,23.4630834 L355.204575,22.9163006 C355.204575,22.7920317 355.204575,22.6677629 355.180256,22.5434941 C355.131618,22.3198102 354.961386,21.8227349 354.207499,21.8227349 C353.74544,21.7730274 353.356338,22.0961263 353.259062,22.5434941 C353.234743,22.6926167 353.210424,22.8417393 353.210424,23.0157156 L353.210424,27.514247 C353.210424,27.6385158 353.210424,27.7627846 353.234743,27.8870534 C353.234743,28.1355911 353.477932,28.5829589 354.183181,28.5829589 Z" id="Logo"></path>
                    </g>
                </g>
            </g>
        </g>
    </g>
</svg>