<svg width="60" height="60" viewBox="0 0 60 60" fill="none" xmlns="http://www.w3.org/2000/svg">
<path fill-rule="evenodd" clip-rule="evenodd" d="M54 30C54 36.3652 51.4714 42.4697 46.9706 46.9706C42.4697 51.4714 36.3652 54 30 54C23.6348 54 17.5303 51.4714 13.0294 46.9706C8.52856 42.4697 6 36.3652 6 30C6 23.6348 8.52856 17.5303 13.0294 13.0294C17.5303 8.52856 23.6348 6 30 6C36.3652 6 42.4697 8.52856 46.9706 13.0294C51.4714 17.5303 54 23.6348 54 30V30ZM33 42C33 42.7956 32.6839 43.5587 32.1213 44.1213C31.5587 44.6839 30.7956 45 30 45C29.2044 45 28.4413 44.6839 27.8787 44.1213C27.3161 43.5587 27 42.7956 27 42C27 41.2044 27.3161 40.4413 27.8787 39.8787C28.4413 39.3161 29.2044 39 30 39C30.7956 39 31.5587 39.3161 32.1213 39.8787C32.6839 40.4413 33 41.2044 33 42V42ZM30 15C29.2044 15 28.4413 15.3161 27.8787 15.8787C27.3161 16.4413 27 17.2044 27 18V30C27 30.7956 27.3161 31.5587 27.8787 32.1213C28.4413 32.6839 29.2044 33 30 33C30.7956 33 31.5587 32.6839 32.1213 32.1213C32.6839 31.5587 33 30.7956 33 30V18C33 17.2044 32.6839 16.4413 32.1213 15.8787C31.5587 15.3161 30.7956 15 30 15Z" fill="#33376D"/>
</svg>
