<svg width="60" height="60" viewBox="0 0 60 60" fill="none" xmlns="http://www.w3.org/2000/svg">
<path d="M33 9C33 8.20435 32.6839 7.44129 32.1213 6.87868C31.5587 6.31607 30.7956 6 30 6C29.2044 6 28.4413 6.31607 27.8787 6.87868C27.3161 7.44129 27 8.20435 27 9V12C27 12.7956 27.3161 13.5587 27.8787 14.1213C28.4413 14.6839 29.2044 15 30 15C30.7956 15 31.5587 14.6839 32.1213 14.1213C32.6839 13.5587 33 12.7956 33 12V9ZM46.971 17.271C47.5175 16.7052 47.8199 15.9474 47.813 15.1608C47.8062 14.3742 47.4907 13.6218 46.9345 13.0655C46.3782 12.5093 45.6258 12.1938 44.8392 12.187C44.0526 12.1801 43.2948 12.4825 42.729 13.029L40.608 15.15C40.0615 15.7158 39.7591 16.4736 39.766 17.2602C39.7728 18.0468 40.0883 18.7992 40.6445 19.3555C41.2008 19.9117 41.9532 20.2272 42.7398 20.234C43.5264 20.2409 44.2842 19.9385 44.85 19.392L46.971 17.271ZM54 30C54 30.7956 53.6839 31.5587 53.1213 32.1213C52.5587 32.6839 51.7957 33 51 33H48C47.2043 33 46.4413 32.6839 45.8787 32.1213C45.3161 31.5587 45 30.7956 45 30C45 29.2044 45.3161 28.4413 45.8787 27.8787C46.4413 27.3161 47.2043 27 48 27H51C51.7957 27 52.5587 27.3161 53.1213 27.8787C53.6839 28.4413 54 29.2044 54 30ZM15.15 19.392C15.4267 19.6785 15.7578 19.9071 16.1238 20.0643C16.4898 20.2215 16.8835 20.3043 17.2818 20.3078C17.6801 20.3112 18.0752 20.2353 18.4439 20.0845C18.8126 19.9336 19.1475 19.7109 19.4292 19.4292C19.7109 19.1475 19.9336 18.8126 20.0845 18.4439C20.2353 18.0752 20.3112 17.6801 20.3078 17.2818C20.3043 16.8835 20.2215 16.4898 20.0643 16.1238C19.9071 15.7578 19.6785 15.4267 19.392 15.15L17.271 13.029C16.7052 12.4825 15.9474 12.1801 15.1608 12.187C14.3742 12.1938 13.6218 12.5093 13.0655 13.0655C12.5093 13.6218 12.1938 14.3742 12.187 15.1608C12.1801 15.9474 12.4825 16.7052 13.029 17.271L15.15 19.392ZM15 30C15 30.7956 14.6839 31.5587 14.1213 32.1213C13.5587 32.6839 12.7956 33 12 33H9C8.20435 33 7.44129 32.6839 6.87868 32.1213C6.31607 31.5587 6 30.7956 6 30C6 29.2044 6.31607 28.4413 6.87868 27.8787C7.44129 27.3161 8.20435 27 9 27H12C12.7956 27 13.5587 27.3161 14.1213 27.8787C14.6839 28.4413 15 29.2044 15 30ZM24 48V45H36V48C36 49.5913 35.3679 51.1174 34.2426 52.2426C33.1174 53.3679 31.5913 54 30 54C28.4087 54 26.8826 53.3679 25.7574 52.2426C24.6321 51.1174 24 49.5913 24 48ZM36 42C36.045 40.98 36.624 40.062 37.431 39.423C39.389 37.8788 40.8174 35.7629 41.5174 33.3695C42.2175 30.976 42.1545 28.424 41.3373 26.068C40.52 23.712 38.9891 21.6691 36.9573 20.2233C34.9255 18.7776 32.4937 18.0007 30 18.0007C27.5063 18.0007 25.0745 18.7776 23.0427 20.2233C21.0109 21.6691 19.48 23.712 18.6627 26.068C17.8455 28.424 17.7825 30.976 18.4826 33.3695C19.1826 35.7629 20.611 37.8788 22.569 39.423C23.379 40.062 23.955 40.98 23.997 42H36.003H36Z" fill="#33376D"/>
</svg>
