<svg width="60" height="60" viewBox="0 0 60 60" fill="none" xmlns="http://www.w3.org/2000/svg">
<path d="M6 9C6 8.20435 6.31607 7.44129 6.87868 6.87868C7.44129 6.31607 8.20435 6 9 6H15.459C16.1691 6.00033 16.8561 6.25254 17.3977 6.71178C17.9394 7.17102 18.3005 7.8075 18.417 8.508L20.637 21.813C20.7431 22.4467 20.6429 23.0976 20.3513 23.6701C20.0597 24.2426 19.5919 24.7063 19.017 24.993L14.373 27.312C16.0383 31.439 18.5185 35.1878 21.6653 38.3347C24.8122 41.4815 28.561 43.9617 32.688 45.627L35.01 40.983C35.2966 40.4086 35.7598 39.9413 36.3317 39.6497C36.9035 39.3581 37.5538 39.2576 38.187 39.363L51.492 41.583C52.1925 41.6995 52.829 42.0606 53.2882 42.6023C53.7475 43.1439 53.9997 43.8309 54 44.541V51C54 51.7956 53.6839 52.5587 53.1213 53.1213C52.5587 53.6839 51.7956 54 51 54H45C23.46 54 6 36.54 6 15V9Z" fill="#33376D"/>
</svg>
