<svg width="60" height="60" viewBox="0 0 60 60" fill="none" xmlns="http://www.w3.org/2000/svg">
<path d="M6 15C6 13.4087 6.63214 11.8826 7.75736 10.7574C8.88258 9.63214 10.4087 9 12 9H33C34.5913 9 36.1174 9.63214 37.2426 10.7574C38.3679 11.8826 39 13.4087 39 15V27C39 28.5913 38.3679 30.1174 37.2426 31.2426C36.1174 32.3679 34.5913 33 33 33H27L18 42V33H12C10.4087 33 8.88258 32.3679 7.75736 31.2426C6.63214 30.1174 6 28.5913 6 27V15Z" fill="#33376D"/>
<path d="M45 21V27C45 30.1826 43.7358 33.2348 41.4853 35.4853C39.2349 37.7357 36.1826 39 33 39H29.484L24.186 44.301C25.026 44.748 25.983 45 27 45H33L42 54V45H48C49.5913 45 51.1175 44.3679 52.2427 43.2426C53.3679 42.1174 54 40.5913 54 39V27C54 25.4087 53.3679 23.8826 52.2427 22.7574C51.1175 21.6321 49.5913 21 48 21H45Z" fill="#33376D"/>
</svg>
