<svg width="60" height="60" viewBox="0 0 60 60" fill="none" xmlns="http://www.w3.org/2000/svg">
<path d="M6.00879 17.652L29.9998 29.646L53.9908 17.652C53.902 16.1233 53.2321 14.6865 52.1183 13.6357C51.0044 12.5849 49.531 11.9997 47.9998 12H11.9998C10.4685 11.9997 8.99513 12.5849 7.88132 13.6357C6.76751 14.6865 6.0976 16.1233 6.00879 17.652V17.652Z" fill="#33376D"/>
<path d="M54 24.354L30 36.354L6 24.354V42C6 43.5913 6.63214 45.1174 7.75736 46.2426C8.88258 47.3679 10.4087 48 12 48H48C49.5913 48 51.1174 47.3679 52.2426 46.2426C53.3679 45.1174 54 43.5913 54 42V24.354Z" fill="#33376D"/>
</svg>
