<svg width="60" height="60" viewBox="0 0 60 60" fill="none" xmlns="http://www.w3.org/2000/svg">
<path d="M6.00879 17.652L29.9998 29.646L53.9908 17.652C53.902 16.1233 53.2321 14.6865 52.1183 13.6357C51.0044 12.5849 49.531 11.9997 47.9998 12H11.9998C10.4685 11.9997 8.99513 12.5849 7.88132 13.6357C6.76751 14.6865 6.0976 16.1233 6.00879 17.652V17.652Z" fill="#33376D"/>
<path fill-rule="evenodd" clip-rule="evenodd" d="M54 24.354L30 36.354L6 24.354V42C6 43.5913 6.63214 45.1174 7.75736 46.2426C8.88258 47.3679 10.4087 48 12 48H36.0347C35.8137 47.0234 35.6998 46.0172 35.6998 45C35.6998 41.5222 37.0314 38.1728 39.4234 35.6922C41.8178 33.2091 45.0811 31.8 48.4998 31.8C50.425 31.8 52.3008 32.2469 54 33.0807V24.354ZM53.5472 35.0984C52.0058 34.2535 50.2753 33.8 48.4998 33.8C45.6355 33.8 42.8884 34.98 40.8631 37.0805C38.8377 39.1809 37.6998 42.0296 37.6998 45C37.6998 45.7292 37.7684 46.451 37.9018 47.1562C38.3119 49.324 39.3348 51.3348 40.8631 52.9196C42.8884 55.0201 45.6355 56.2 48.4998 56.2C51.3641 56.2 54.1112 55.0201 56.1366 52.9196C58.1619 50.8192 59.2998 47.9705 59.2998 45C59.2998 42.0296 58.1619 39.1809 56.1366 37.0805C55.3666 36.282 54.4925 35.6166 53.5472 35.0984ZM47.1498 50.6C47.1498 50.9714 47.292 51.3274 47.5452 51.59C47.7984 51.8525 48.1418 52 48.4998 52C48.8578 52 49.2012 51.8525 49.4544 51.59C49.7076 51.3274 49.8498 50.9714 49.8498 50.6C49.8498 50.2287 49.7076 49.8727 49.4544 49.6101C49.2012 49.3475 48.8578 49.2 48.4998 49.2C48.1418 49.2 47.7984 49.3475 47.5452 49.6101C47.292 49.8727 47.1498 50.2287 47.1498 50.6ZM48.4998 38C48.8578 38 49.2012 38.1475 49.4544 38.4101C49.7076 38.6727 49.8498 39.0287 49.8498 39.4V45C49.8498 45.3714 49.7076 45.7274 49.4544 45.99C49.2012 46.2525 48.8578 46.4 48.4998 46.4C48.1418 46.4 47.7984 46.2525 47.5452 45.99C47.292 45.7274 47.1498 45.3714 47.1498 45V39.4C47.1498 39.0287 47.292 38.6727 47.5452 38.4101C47.7984 38.1475 48.1418 38 48.4998 38Z" fill="#33376D"/>
</svg>
