<svg width="60" height="60" viewBox="0 0 60 60" fill="none" xmlns="http://www.w3.org/2000/svg">
<path fill-rule="evenodd" clip-rule="evenodd" d="M54 30C54 36.3652 51.4714 42.4697 46.9706 46.9706C42.4697 51.4714 36.3652 54 30 54C23.6348 54 17.5303 51.4714 13.0294 46.9706C8.52856 42.4697 6 36.3652 6 30C6 23.6348 8.52856 17.5303 13.0294 13.0294C17.5303 8.52856 23.6348 6 30 6C36.3652 6 42.4697 8.52856 46.9706 13.0294C51.4714 17.5303 54 23.6348 54 30V30ZM30 21C29.4729 20.9995 28.955 21.1379 28.4983 21.4012C28.0417 21.6645 27.6626 22.0435 27.399 22.5C27.2087 22.8536 26.9493 23.1655 26.6363 23.417C26.3232 23.6685 25.9629 23.8546 25.5766 23.9643C25.1902 24.074 24.7858 24.105 24.3873 24.0555C23.9888 24.0059 23.6043 23.8769 23.2566 23.676C22.9088 23.4752 22.605 23.2065 22.363 22.886C22.121 22.5655 21.9459 22.1997 21.8479 21.8102C21.7499 21.4208 21.7311 21.0156 21.7926 20.6188C21.8542 20.222 21.9947 19.8415 22.206 19.5C23.1967 17.7843 24.7257 16.4435 26.5561 15.6854C28.3864 14.9273 30.4158 14.7943 32.3294 15.3071C34.243 15.8198 35.934 16.9497 37.1401 18.5214C38.3461 20.0931 38.9999 22.0189 39 24C39.0005 25.8619 38.4238 27.6781 37.3493 29.1986C36.2747 30.719 34.7552 31.869 33 32.49V33C33 33.7956 32.6839 34.5587 32.1213 35.1213C31.5587 35.6839 30.7956 36 30 36C29.2044 36 28.4413 35.6839 27.8787 35.1213C27.3161 34.5587 27 33.7956 27 33V30C27 29.2044 27.3161 28.4413 27.8787 27.8787C28.4413 27.3161 29.2044 27 30 27C30.7956 27 31.5587 26.6839 32.1213 26.1213C32.6839 25.5587 33 24.7956 33 24C33 23.2044 32.6839 22.4413 32.1213 21.8787C31.5587 21.3161 30.7956 21 30 21ZM30 45C30.7956 45 31.5587 44.6839 32.1213 44.1213C32.6839 43.5587 33 42.7956 33 42C33 41.2044 32.6839 40.4413 32.1213 39.8787C31.5587 39.3161 30.7956 39 30 39C29.2044 39 28.4413 39.3161 27.8787 39.8787C27.3161 40.4413 27 41.2044 27 42C27 42.7956 27.3161 43.5587 27.8787 44.1213C28.4413 44.6839 29.2044 45 30 45V45Z" fill="#33376D"/>
</svg>
