<svg width="60" height="60" viewBox="0 0 60 60" fill="none" xmlns="http://www.w3.org/2000/svg">
<path fill-rule="evenodd" clip-rule="evenodd" d="M30 5.83203C23.5349 11.6335 15.1838 14.8912 6.498 15C6.168 16.947 6 18.957 6 21C6 36.675 16.02 50.01 30 54.951C43.98 50.01 54 36.675 54 21C54 18.954 53.829 16.95 53.502 14.997C44.8166 14.889 36.4656 11.6324 30 5.83203V5.83203ZM33 42C33 42.7957 32.6839 43.5587 32.1213 44.1214C31.5587 44.684 30.7956 45 30 45C29.2044 45 28.4413 44.684 27.8787 44.1214C27.3161 43.5587 27 42.7957 27 42C27 41.2044 27.3161 40.4413 27.8787 39.8787C28.4413 39.3161 29.2044 39 30 39C30.7956 39 31.5587 39.3161 32.1213 39.8787C32.6839 40.4413 33 41.2044 33 42V42ZM33 21C33 20.2044 32.6839 19.4413 32.1213 18.8787C31.5587 18.3161 30.7956 18 30 18C29.2044 18 28.4413 18.3161 27.8787 18.8787C27.3161 19.4413 27 20.2044 27 21V30C27 30.7957 27.3161 31.5587 27.8787 32.1214C28.4413 32.684 29.2044 33 30 33C30.7956 33 31.5587 32.684 32.1213 32.1214C32.6839 31.5587 33 30.7957 33 30V21Z" fill="#33376D"/>
</svg>
