<svg width="49" height="48" viewBox="0 0 49 48" fill="none" xmlns="http://www.w3.org/2000/svg">
<path d="M5.6001 11.9999L7.29715 10.3029C6.61076 9.61647 5.57848 9.41114 4.68166 9.78261C3.78484 10.1541 3.2001 11.0292 3.2001 11.9999H5.6001ZM5.6001 16.7999H3.2001C3.2001 18.1254 4.27461 19.1999 5.6001 19.1999L5.6001 16.7999ZM43.8513 21.5999L41.4701 21.8996C41.4734 21.9262 41.4772 21.9527 41.4814 21.9791L43.8513 21.5999ZM10.4001 16.7999V19.1999C11.3708 19.1999 12.2459 18.6152 12.6174 17.7184C12.9889 16.8215 12.7835 15.7893 12.0972 15.1029L10.4001 16.7999ZM8.12989 26.0985C7.96342 24.7835 6.76247 23.8525 5.44748 24.0189C4.13249 24.1854 3.20143 25.3864 3.3679 26.7013L8.12989 26.0985ZM3.2001 11.9999V16.7999H8.0001V11.9999H3.2001ZM5.6001 19.1999H6.9969V14.3999H5.6001V19.1999ZM46.2325 21.3002C45.6354 16.556 43.4811 12.144 40.1073 8.75559L36.7059 12.1424C39.3301 14.7779 41.0057 18.2096 41.4701 21.8996L46.2325 21.3002ZM40.1073 8.75559C36.7335 5.36719 32.3308 3.19392 27.5892 2.57636L26.9693 7.33616C30.6573 7.8165 34.0817 9.50687 36.7059 12.1424L40.1073 8.75559ZM27.5892 2.57636C22.8476 1.95881 18.0351 2.93187 13.9059 5.34307L16.3264 9.48811C19.5381 7.61268 23.2812 6.85582 26.9693 7.33616L27.5892 2.57636ZM13.9059 5.34307C9.77676 7.75426 6.56425 11.4673 4.77189 15.9003L9.22191 17.6996C10.616 14.2516 13.1147 11.3635 16.3264 9.48811L13.9059 5.34307ZM6.9969 19.1999H10.4001V14.3999H6.9969V19.1999ZM40.3813 30.2987C39.1134 33.4283 36.4658 36.6423 33.2742 38.5045L35.6932 42.6504C39.8418 40.2298 43.1811 36.1712 44.8301 32.1011L40.3813 30.2987ZM33.2742 38.5045C30.0627 40.3783 26.3205 41.1343 22.6335 40.6541L22.0136 45.4139C26.7536 46.0312 31.5645 45.0593 35.6932 42.6504L33.2742 38.5045ZM22.6335 40.6541C18.9464 40.1739 15.5227 38.4847 12.8983 35.8509L9.49809 39.2389C12.872 42.6249 17.2736 44.7966 22.0136 45.4139L22.6335 40.6541ZM12.8983 35.8509C10.2738 33.217 8.59686 29.7872 8.12989 26.0985L3.3679 26.7013C3.96823 31.4436 6.12414 35.8528 9.49809 39.2389L12.8983 35.8509ZM41.4814 21.9791C41.7398 23.594 41.6584 27.1465 40.3813 30.2987L44.8301 32.1011C46.4699 28.0537 46.6028 23.6057 46.2212 21.2207L41.4814 21.9791ZM3.90304 13.697L8.70304 18.497L12.0972 15.1029L7.29715 10.3029L3.90304 13.697Z" fill="#33376D"/>
<path fill-rule="evenodd" clip-rule="evenodd" d="M24.7999 37.4401C28.3644 37.4401 31.7829 36.0241 34.3034 33.5036C36.8239 30.9831 38.2399 27.5646 38.2399 24.0001C38.2399 20.4355 36.8239 17.017 34.3034 14.4965C31.7829 11.9761 28.3644 10.5601 24.7999 10.5601C21.2354 10.5601 17.8168 11.9761 15.2963 14.4965C12.7759 17.017 11.3599 20.4355 11.3599 24.0001C11.3599 27.5646 12.7759 30.9831 15.2963 33.5036C17.8168 36.0241 21.2354 37.4401 24.7999 37.4401ZM24.0523 19.2423C23.7993 19.0735 23.5052 18.9765 23.2014 18.9618C22.8976 18.947 22.5955 19.015 22.3273 19.1585C22.0591 19.302 21.8349 19.5156 21.6786 19.7765C21.5223 20.0374 21.4398 20.3359 21.4399 20.6401V27.3601C21.4398 27.6642 21.5223 27.9627 21.6786 28.2236C21.8349 28.4845 22.0591 28.6981 22.3273 28.8416C22.5955 28.9851 22.8976 29.0531 23.2014 29.0383C23.5052 29.0236 23.7993 28.9266 24.0523 28.7578L29.0923 25.3978C29.3224 25.2444 29.511 25.0365 29.6415 24.7927C29.772 24.5489 29.8402 24.2766 29.8402 24.0001C29.8402 23.7235 29.772 23.4512 29.6415 23.2074C29.511 22.9636 29.3224 22.7557 29.0923 22.6023L26.5723 20.9223L24.0523 19.2423Z" fill="#33376D"/>
</svg>
