<svg width="49" height="48" viewBox="0 0 49 48" fill="none" xmlns="http://www.w3.org/2000/svg">
<path fill-rule="evenodd" clip-rule="evenodd" d="M19.7035 7.72537C19.0651 5.10457 15.3355 5.10457 14.6971 7.72537C14.6018 8.11918 14.4149 8.48494 14.1515 8.79286C13.8881 9.10078 13.5558 9.34217 13.1815 9.49738C12.8072 9.65259 12.4016 9.71725 11.9976 9.68608C11.5936 9.65491 11.2027 9.5288 10.8566 9.31801C8.55168 7.91353 5.91408 10.5511 7.31856 12.8561C8.22576 14.3446 7.42104 16.2866 5.7276 16.6982C3.10512 17.335 3.10512 21.0662 5.7276 21.7013C6.12153 21.7967 6.48734 21.9838 6.79526 22.2474C7.10318 22.511 7.3445 22.8435 7.49956 23.218C7.65463 23.5925 7.71906 23.9983 7.68761 24.4024C7.65615 24.8065 7.52971 25.1975 7.31856 25.5434C5.91408 27.8484 8.55168 30.486 10.8566 29.0815C11.2026 28.8704 11.5936 28.7439 11.9977 28.7125C12.4018 28.681 12.8076 28.7455 13.1821 28.9005C13.5565 29.0556 13.8891 29.2969 14.1527 29.6048C14.4163 29.9127 14.6034 30.2786 14.6988 30.6725C15.3355 33.295 19.0668 33.295 19.7018 30.6725C19.7976 30.2788 19.9849 29.9132 20.2485 29.6055C20.5121 29.2978 20.8447 29.0566 21.219 28.9016C21.5934 28.7466 21.9991 28.6821 22.403 28.7134C22.807 28.7446 23.1979 28.8708 23.544 29.0815C25.849 30.486 28.4866 27.8484 27.0821 25.5434C26.8713 25.1974 26.7452 24.8065 26.7139 24.4025C26.6826 23.9985 26.7471 23.5928 26.9022 23.2185C27.0572 22.8441 27.2983 22.5116 27.606 22.248C27.9138 21.9843 28.2793 21.797 28.673 21.7013C31.2955 21.0646 31.2955 17.3333 28.673 16.6982C28.2791 16.6028 27.9133 16.4157 27.6054 16.1521C27.2975 15.8886 27.0561 15.556 26.9011 15.1815C26.746 14.807 26.6816 14.4012 26.713 13.9971C26.7445 13.593 26.8709 13.2021 27.0821 12.8561C28.4866 10.5511 25.849 7.91353 23.544 9.31801C23.198 9.52915 22.8071 9.6556 22.403 9.68705C21.9989 9.7185 21.5931 9.65407 21.2186 9.49901C20.8441 9.34394 20.5115 9.10262 20.248 8.7947C19.9844 8.48678 19.7973 8.12097 19.7018 7.72705L19.7035 7.72537ZM17.2003 24.2398C18.537 24.2398 19.819 23.7088 20.7641 22.7636C21.7093 21.8184 22.2403 20.5365 22.2403 19.1998C22.2403 17.8631 21.7093 16.5811 20.7641 15.6359C19.819 14.6908 18.537 14.1598 17.2003 14.1598C15.8636 14.1598 14.5817 14.6908 13.6365 15.6359C12.6913 16.5811 12.1603 17.8631 12.1603 19.1998C12.1603 20.5365 12.6913 21.8184 13.6365 22.7636C14.5817 23.7088 15.8636 24.2398 17.2003 24.2398V24.2398Z" fill="#33376D"/>
<path fill-rule="evenodd" clip-rule="evenodd" d="M37.0788 25.9368C37.0925 24.0963 34.6245 23.4756 33.7659 25.1037C33.6373 25.3484 33.4527 25.5593 33.2272 25.7193C33.0017 25.8792 32.7416 25.9836 32.4681 26.024C32.1945 26.0645 31.9154 26.0397 31.6532 25.9519C31.3911 25.864 31.1534 25.7155 30.9594 25.5184C29.6679 24.2054 27.4835 25.5119 28.0293 27.2709C28.382 28.4069 27.5263 29.5581 26.3371 29.5487C24.4958 29.5336 23.8748 32.0027 25.5045 32.8594C25.7493 32.9881 25.9603 33.1728 26.1202 33.3985C26.2801 33.6241 26.3844 33.8844 26.4247 34.158C26.465 34.4316 26.4401 34.7109 26.352 34.973C26.264 35.2352 26.1152 35.4729 25.9179 35.6667C24.6049 36.9582 25.9114 39.1426 27.6704 38.5968C27.9345 38.5146 28.2143 38.496 28.4869 38.5425C28.7595 38.5889 29.0174 38.6991 29.2394 38.864C29.4614 39.0289 29.6413 39.244 29.7645 39.4916C29.8876 39.7392 29.9506 40.0124 29.9482 40.289C29.9331 42.1304 32.4022 42.7513 33.2589 41.1216C33.3878 40.877 33.5726 40.6663 33.7982 40.5065C34.0239 40.3468 34.284 40.2425 34.5576 40.2022C34.8311 40.1619 35.1103 40.1868 35.3724 40.2747C35.6346 40.3626 35.8722 40.5111 36.0662 40.7082C37.3577 42.0212 39.5421 40.7147 38.9963 38.9557C38.9144 38.6916 38.896 38.412 38.9425 38.1394C38.9891 37.8669 39.0992 37.6092 39.2641 37.3872C39.429 37.1653 39.6439 36.9854 39.8914 36.8622C40.1389 36.7389 40.412 36.6758 40.6885 36.678C42.5298 36.6931 43.1508 34.2239 41.5211 33.3672C41.2763 33.2385 41.0654 33.0538 40.9055 32.8282C40.7456 32.6025 40.6412 32.3423 40.6009 32.0687C40.5606 31.7951 40.5855 31.5158 40.6736 31.2536C40.7617 30.9914 40.9104 30.7538 41.1077 30.56C42.4207 29.2684 41.1142 27.0841 39.3552 27.6299C39.0911 27.712 38.8114 27.7306 38.5387 27.6842C38.2661 27.6378 38.0083 27.5276 37.7863 27.3626C37.5642 27.1977 37.3843 26.9827 37.2612 26.735C37.138 26.4874 37.075 26.2142 37.0775 25.9377L37.0788 25.9368ZM32.6741 36.4485C33.5586 36.671 34.4953 36.5329 35.278 36.0647C36.0608 35.5966 36.6255 34.8366 36.848 33.9521C37.0704 33.0675 36.9324 32.1309 36.4642 31.3481C35.9961 30.5653 35.2361 30.0006 34.3516 29.7781C33.467 29.5557 32.5303 29.6937 31.7476 30.1619C30.9648 30.6301 30.4001 31.39 30.1776 32.2746C29.9552 33.1591 30.0932 34.0958 30.5614 34.8786C31.0296 35.6613 31.7895 36.2261 32.6741 36.4485V36.4485Z" fill="#33376D"/>
</svg>
