<svg width="128" height="128" viewBox="0 0 128 128" fill="none" xmlns="http://www.w3.org/2000/svg">
<path d="M35.3482 98.0909C29.1133 98.0978 20.095 95.81 15.4463 91.6657C10.7977 87.5214 7.84558 81.8121 7.15558 75.6315C6.46559 69.4509 8.08622 63.2337 11.707 58.171C15.3278 53.1083 20.6941 49.5561 26.7779 48.1949C25.0176 40.0068 26.5907 31.4566 31.1509 24.4253C35.7112 17.394 42.8851 12.4575 51.0945 10.7018C59.3039 8.94617 67.8764 10.5151 74.926 15.0635C81.9756 19.612 86.9249 26.7673 88.6852 34.9554H89.3182C97.1671 34.9475 104.739 37.8487 110.564 43.0959C116.389 48.343 120.051 55.5617 120.84 63.3506C121.628 71.1395 119.488 78.9428 114.832 85.2458C110.177 91.5488 101.34 95.9017 93.6481 97.4595M76.3994 48.6343L63.9982 36.272M63.9982 36.272L51.597 48.6343M63.9982 36.272V71.6315" stroke="#49B8D0" stroke-width="5" stroke-linecap="round" stroke-linejoin="round"/>
<path d="M63.9465 58L90.893 73.5576V104.673L63.9465 120.23L37 104.673V73.5576L63.9465 58Z" stroke="#49B8D0" stroke-width="5"/>
<path d="M90.893 73.5576L63.9465 89.1152M63.9465 120.23V89.1152M37 73.5576L63.9465 89.1152" stroke="#49B8D0" stroke-width="5"/>
<path d="M90.8933 73.5576V104.673L63.9468 120.23V89.1152L90.8933 73.5576Z" fill="#49B8D0"/>
<path d="M90.8933 73.5576V104.673L63.9468 120.23V89.1152L90.8933 73.5576Z" fill="#49B8D0"/>
<path d="M90.8933 73.5576V104.673L63.9468 120.23V89.1152L90.8933 73.5576Z" stroke="#49B8D0" stroke-width="3"/>
</svg>
