<svg width="49" height="48" viewBox="0 0 49 48" fill="none" xmlns="http://www.w3.org/2000/svg">
<path d="M42.0728 26.1462C42.4709 25.9466 42.8057 25.6403 43.0396 25.2613C43.2736 24.8824 43.3975 24.4459 43.3975 24.0006C43.3975 23.5552 43.2736 23.1187 43.0396 22.7398C42.8057 22.3609 42.4709 22.0545 42.0728 21.855L8.47282 5.05495C8.05621 4.8465 7.58794 4.7638 7.12512 4.81693C6.66231 4.87007 6.22497 5.05676 5.86645 5.35421C5.50793 5.65167 5.24372 6.04703 5.10607 6.49208C4.96841 6.93713 4.96325 7.41262 5.09122 7.86055L8.52082 19.8606C8.66427 20.3621 8.96723 20.8032 9.38383 21.1172C9.80042 21.4312 10.308 21.6008 10.8296 21.6006L21.8 21.6006C22.4365 21.6006 23.047 21.8534 23.4971 22.3035C23.9472 22.7536 24.2 23.364 24.2 24.0006C24.2 24.6371 23.9472 25.2475 23.4971 25.6976C23.047 26.1477 22.4365 26.4006 21.8 26.4006L10.8296 26.4006C10.308 26.4003 9.80042 26.5699 9.38383 26.8839C8.96723 27.1979 8.66427 27.639 8.52082 28.1406L5.09362 40.1406C4.96539 40.5883 4.97024 41.0638 5.10758 41.5088C5.24491 41.9539 5.50878 42.3494 5.86703 42.6471C6.22527 42.9448 6.6624 43.1318 7.1251 43.1853C7.5878 43.2389 8.05607 43.1566 8.47282 42.9486L42.0728 26.1486L42.0728 26.1462Z" fill="#33376D"/>
<line x1="19.4" y1="40.7997" x2="45.8" y2="40.7997" stroke="#33376D" stroke-width="4.8" stroke-linecap="round" stroke-dasharray="7.2 9.6"/>
</svg>
