<svg width="127" height="128" viewBox="0 0 127 128" fill="none" xmlns="http://www.w3.org/2000/svg">
<path d="M17.186 59.6514L64 86.6049L110.814 59.6514V76.2018L71.8782 99.7992C71.8782 99.7992 68.3727 102 64 102C59.6273 102 56.1218 99.7992 56.1218 99.7992L17.186 76.2018V59.6514Z" fill="#49B8D0"/>
<line x1="38.4649" y1="54.5581" x2="38.4649" y2="108.465" stroke="#49B8D0" stroke-width="4.72868"/>
<path d="M45 108.428V122.623C43.1438 124.459 33.858 124.459 32.0005 122.623L32 108.428C32 104.878 34.9101 102 38.5 102C42.0898 102 45 104.878 45 108.428Z" fill="#49B8D0"/>
<path fill-rule="evenodd" clip-rule="evenodd" d="M65.9901 13.1417C64.7574 12.4345 63.2421 12.4345 62.0094 13.1417L9.04823 43.5225C6.36869 45.0596 6.36869 48.9247 9.04823 50.4618L62.0094 80.8427C63.2421 81.5498 64.7574 81.5498 65.9901 80.8427L118.951 50.4618C121.631 48.9247 121.631 45.0596 118.951 43.5225L65.9901 13.1417ZM69 45.967V45.8207C69 43.1583 66.5376 41 63.5 41C60.4624 41 58 43.1583 58 45.8207L58.0004 45.967C59.5722 47.3443 67.4293 47.3443 69 45.967Z" fill="#49B8D0"/>
</svg>
