<svg width="128" height="128" viewBox="0 0 128 128" fill="none" xmlns="http://www.w3.org/2000/svg">
<path d="M35.0422 55.562L61.9887 71.1196V102.235L35.0422 117.792L8.0957 102.235V71.1196L35.0422 55.562Z" stroke="#49B8D0" stroke-width="5"/>
<path d="M61.9887 71.1196L35.0422 86.6772M35.0422 117.792V86.6772M8.0957 71.1196L35.0422 86.6772" stroke="#49B8D0" stroke-width="5"/>
<path d="M60.489 73.7177V101.369L36.5425 115.194V87.5432L60.489 73.7177Z" fill="#49B8D0" stroke="#49B8D0" stroke-width="3"/>
<path d="M92.9465 55.562L119.893 71.1196V102.235L92.9465 117.792L66 102.235V71.1196L92.9465 55.562Z" stroke="#49B8D0" stroke-width="5"/>
<path d="M119.893 71.1196L92.9465 86.6772M92.9465 117.792V86.6772M66 71.1196L92.9465 86.6772" stroke="#49B8D0" stroke-width="5"/>
<path d="M119.893 71.1196V102.235L92.9468 117.792V86.6772L119.893 71.1196Z" fill="#49B8D0"/>
<path d="M119.893 71.1196V102.235L92.9468 117.792V86.6772L119.893 71.1196Z" fill="#49B8D0"/>
<path d="M119.893 71.1196V102.235L92.9468 117.792V86.6772L119.893 71.1196Z" stroke="#49B8D0" stroke-width="3"/>
<path d="M63.9465 10L90.893 25.5576V56.6727L63.9465 72.2303L37 56.6727V25.5576L63.9465 10Z" stroke="#49B8D0" stroke-width="5"/>
<path d="M90.893 25.5576L63.9465 41.1152M63.9465 72.2303V41.1152M37 25.5576L63.9465 41.1152" stroke="#49B8D0" stroke-width="5"/>
<path d="M90.8933 25.5576V56.6728L63.9468 72.2303V41.1152L90.8933 25.5576Z" fill="#49B8D0"/>
<path d="M90.8933 25.5576V56.6728L63.9468 72.2303V41.1152L90.8933 25.5576Z" fill="#49B8D0"/>
<path d="M90.8933 25.5576V56.6728L63.9468 72.2303V41.1152L90.8933 25.5576Z" stroke="#49B8D0" stroke-width="3"/>
</svg>
