<svg width="49" height="48" viewBox="0 0 49 48" fill="none" xmlns="http://www.w3.org/2000/svg">
<path d="M31.8 14.4002C31.8 16.3098 31.0414 18.1411 29.6912 19.4914C28.3409 20.8416 26.5096 21.6002 24.6 21.6002C22.6904 21.6002 20.8591 20.8416 19.5088 19.4914C18.1586 18.1411 17.4 16.3098 17.4 14.4002C17.4 12.4906 18.1586 10.6593 19.5088 9.30903C20.8591 7.95876 22.6904 7.2002 24.6 7.2002C26.5096 7.2002 28.3409 7.95876 29.6912 9.30903C31.0414 10.6593 31.8 12.4906 31.8 14.4002V14.4002ZM43.8 19.2002C43.8 20.4732 43.2943 21.6941 42.3941 22.5943C41.4939 23.4945 40.273 24.0002 39 24.0002C37.727 24.0002 36.5061 23.4945 35.6059 22.5943C34.7057 21.6941 34.2 20.4732 34.2 19.2002C34.2 17.9272 34.7057 16.7063 35.6059 15.8061C36.5061 14.9059 37.727 14.4002 39 14.4002C40.273 14.4002 41.4939 14.9059 42.3941 15.8061C43.2943 16.7063 43.8 17.9272 43.8 19.2002V19.2002ZM34.2 36.0002C34.2 33.4541 33.1886 31.0123 31.3882 29.212C29.5879 27.4116 27.1461 26.4002 24.6 26.4002C22.0539 26.4002 19.6121 27.4116 17.8118 29.212C16.0114 31.0123 15 33.4541 15 36.0002V43.2002H34.2V36.0002ZM15 19.2002C15 20.4732 14.4943 21.6941 13.5941 22.5943C12.6939 23.4945 11.473 24.0002 10.2 24.0002C8.92696 24.0002 7.70606 23.4945 6.80589 22.5943C5.90571 21.6941 5.4 20.4732 5.4 19.2002C5.4 17.9272 5.90571 16.7063 6.80589 15.8061C7.70606 14.9059 8.92696 14.4002 10.2 14.4002C11.473 14.4002 12.6939 14.9059 13.5941 15.8061C14.4943 16.7063 15 17.9272 15 19.2002V19.2002ZM39 43.2002V36.0002C39.0035 33.5601 38.3839 31.1595 37.2 29.0258C38.264 28.7535 39.3762 28.7278 40.4517 28.9507C41.5271 29.1736 42.5375 29.6392 43.4056 30.312C44.2738 30.9847 44.9768 31.8469 45.4611 32.8327C45.9454 33.8185 46.1981 34.9019 46.2 36.0002V43.2002H39ZM12 29.0258C10.8162 31.1595 10.1966 33.5601 10.2 36.0002V43.2002H3V36.0002C2.99954 34.9011 3.25071 33.8165 3.73427 32.8295C4.21783 31.8424 4.92095 30.9792 5.78972 30.306C6.6585 29.6328 7.66987 29.1673 8.74634 28.9454C9.82281 28.7235 10.9358 28.751 12 29.0258V29.0258Z" fill="#33376D"/>
</svg>
