<svg width="48" height="48" viewBox="0 0 48 48" fill="none" xmlns="http://www.w3.org/2000/svg">
<path fill-rule="evenodd" clip-rule="evenodd" d="M4.7998 14.4001C4.7998 13.1271 5.30552 11.9062 6.20569 11.006C7.10587 10.1058 8.32677 9.6001 9.5998 9.6001H19.1998L23.9998 14.4001H33.5998C34.8728 14.4001 36.0937 14.9058 36.9939 15.806C37.8941 16.7062 38.3998 17.9271 38.3998 19.2001V21.6001H19.1998C17.2902 21.6001 15.4589 22.3587 14.1086 23.7089C12.7584 25.0592 11.9998 26.8905 11.9998 28.8001V32.4001C11.9998 33.3549 11.6205 34.2706 10.9454 34.9457C10.2703 35.6208 9.35458 36.0001 8.3998 36.0001C7.44503 36.0001 6.52935 35.6208 5.85422 34.9457C5.17909 34.2706 4.7998 33.3549 4.7998 32.4001V14.4001Z" fill="#33376D"/>
<path d="M14.3998 28.8C14.3998 27.527 14.9055 26.3061 15.8057 25.4059C16.7059 24.5057 17.9268 24 19.1998 24H38.3998C39.6728 24 40.8937 24.5057 41.7939 25.4059C42.6941 26.3061 43.1998 27.527 43.1998 28.8V33.6C43.1998 34.873 42.6941 36.0939 41.7939 36.9941C40.8937 37.8943 39.6728 38.4 38.3998 38.4H4.7998H9.5998C10.8728 38.4 12.0937 37.8943 12.9939 36.9941C13.8941 36.0939 14.3998 34.873 14.3998 33.6V28.8Z" fill="#33376D"/>
</svg>
